<?xml version="1.0" encoding="UTF-8"?>
<svg version="1.1" xmlns="http://www.w3.org/2000/svg" width="500" height="500">
<path d="M0 0 C0.82371094 0.68320313 1.64742187 1.36640625 2.49609375 2.0703125 C3.30949219 2.73289063 4.12289062 3.39546875 4.9609375 4.078125 C10.97039831 9.17766745 10.97039831 9.17766745 12.67163086 12.06640625 C14.68391321 15.3570323 16.14018544 17.66008071 19.9362793 18.80859375 C23.12626927 19.1028601 26.23013777 19.12413325 29.43359375 19.0703125 C30.66634033 19.08191406 31.89908691 19.09351563 33.16918945 19.10546875 C36.77820031 19.13736647 40.38541524 19.11555145 43.99438477 19.08642578 C48.64595605 19.05646543 53.29757393 19.06670348 57.94921875 19.0703125 C64.07296328 19.07303383 70.19659288 19.07179768 76.3203125 19.05273438 C90.7376226 19.01489672 105.09791386 19.26481992 119.49609375 20.0703125 C120.34534898 25.10007666 120.57617173 29.87022325 120.375 34.97265625 C120.35138901 35.6952211 120.32777802 36.41778595 120.30345154 37.1622467 C120.22757384 39.44434077 120.14322931 41.72602818 120.05859375 44.0078125 C120.00529679 45.56573606 119.95255708 47.1236788 119.90039062 48.68164062 C119.77206319 52.47811651 119.63614752 56.27425186 119.49609375 60.0703125 C116.85609375 60.4003125 114.21609375 60.7303125 111.49609375 61.0703125 C111.47124011 65.09048505 111.45316137 69.11062738 111.44116211 73.13085938 C111.43615589 74.4964272 111.42934893 75.86198974 111.4206543 77.22753906 C111.40842544 79.19854368 111.40336509 81.1695886 111.3984375 83.140625 C111.39320068 84.32414551 111.38796387 85.50766602 111.38256836 86.72705078 C111.49139198 89.93184782 111.89091892 92.92507862 112.49609375 96.0703125 C113.20636719 96.13089844 113.91664063 96.19148438 114.6484375 96.25390625 C116.02708984 96.37958984 116.02708984 96.37958984 117.43359375 96.5078125 C118.35011719 96.58902344 119.26664063 96.67023438 120.2109375 96.75390625 C122.49609375 97.0703125 122.49609375 97.0703125 123.49609375 98.0703125 C123.5971263 100.87024847 123.63579463 103.64499894 123.62890625 106.4453125 C123.63034134 107.70480713 123.63034134 107.70480713 123.63180542 108.98974609 C123.63248723 110.76855545 123.63063292 112.54736727 123.62646484 114.32617188 C123.62111658 117.05865026 123.6264098 119.79096426 123.6328125 122.5234375 C123.63215172 124.2473962 123.63087056 125.97135479 123.62890625 127.6953125 C123.63093048 128.51821777 123.63295471 129.34112305 123.63504028 130.18896484 C123.61104429 135.95536196 123.61104429 135.95536196 122.49609375 137.0703125 C120.68648504 137.16672747 118.87307247 137.19218648 117.06089783 137.19056702 C115.8815416 137.19194168 114.70218536 137.19331635 113.48709106 137.19473267 C112.18158295 137.19113739 110.87607483 137.18754211 109.53100586 137.18383789 C108.15156557 137.18355602 106.77212514 137.18371375 105.39268494 137.1842804 C101.63665257 137.18456838 97.88065186 137.17867155 94.12462687 137.17170644 C90.2034933 137.16547301 86.28235908 137.16486911 82.36122131 137.16368103 C74.93097764 137.16056768 67.50074861 137.15235425 60.0705114 137.14233154 C51.61357737 137.13117051 43.15664265 137.12565998 34.6997031 137.12063611 C17.2984915 137.11017164 -0.10270583 137.09257213 -17.50390625 137.0703125 C-18.16390625 135.7503125 -18.82390625 134.4303125 -19.50390625 133.0703125 C-20.14457031 133.27527344 -20.78523438 133.48023438 -21.4453125 133.69140625 C-22.31027344 133.96082031 -23.17523438 134.23023438 -24.06640625 134.5078125 C-24.91332031 134.77464844 -25.76023437 135.04148437 -26.6328125 135.31640625 C-50.49275586 141.58167029 -77.48966399 137.56496463 -98.75390625 125.6953125 C-115.36073923 115.60180882 -126.05506689 99.57217685 -131.94140625 81.1953125 C-137.06201293 59.95920342 -133.50128731 38.72904898 -122.50390625 20.0703125 C-120.32466741 16.91999024 -117.98785847 13.982732 -115.50390625 11.0703125 C-114.88644531 10.25433594 -114.26898438 9.43835938 -113.6328125 8.59765625 C-87.97316931 -21.86434218 -30.41411264 -23.77091121 0 0 Z " fill="#B4E18A" transform="translate(255.50390625,142.9296875)"/>
<path d="M0 0 C-0.33 0.66 -0.66 1.32 -1 2 C-3.57888483 2.80065378 -6.13893934 3.50983295 -8.75 4.1875 C-27.35646473 9.40182739 -42.82678928 20.43389616 -53 37 C-56.09548721 42.78550919 -58.92388218 48.77164653 -61 55 C-58.03 54.505 -58.03 54.505 -55 54 C-55.33 53.01 -55.66 52.02 -56 51 C-54.515 50.505 -54.515 50.505 -53 50 C-52.67 51.65 -52.34 53.3 -52 55 C-50.515 54.505 -50.515 54.505 -49 54 C-47.09003499 55.90996501 -47.84601236 59.3628666 -47.82421875 61.89453125 C-47.80097426 63.34050861 -47.77685522 64.78647212 -47.75195312 66.23242188 C-47.71719648 68.50521468 -47.68770991 70.77751406 -47.67407227 73.05053711 C-47.54388708 91.20636289 -42.37184095 106.19350925 -29.64453125 119.6796875 C-20.37532373 127.81249292 -7.35050536 134.11782105 5 135 C5.76183594 135.06316406 6.52367187 135.12632812 7.30859375 135.19140625 C22.8728916 135.90833527 38.81184712 129.88766342 50.8203125 120.14453125 C55.13387141 115.90054587 58.555022 110.95979102 62 106 C62.33 106.66 62.66 107.32 63 108 C66.62885324 108.15149298 66.62885324 108.15149298 70 107 C69.67 109.31 69.34 111.62 69 114 C69.66 114 70.32 114 71 114 C70.67 113.34 70.34 112.68 70 112 C71.65 112.33 73.3 112.66 75 113 C75.33 111.68 75.66 110.36 76 109 C75.34 109.66 74.68 110.32 74 111 C73.01 111 72.02 111 71 111 C71 109.35 71 107.7 71 106 C70.34 105.67 69.68 105.34 69 105 C71 103 71 103 73.9375 102.6875 C77 103 77 103 78.875 104.5 C79.431875 105.2425 79.431875 105.2425 80 106 C79.34 107.65 78.68 109.3 78 111 C83.94 111.33 89.88 111.66 96 112 C96 99.46 96 86.92 96 74 C96.66 74 97.32 74 98 74 C98 86.54 98 99.08 98 112 C105.26 112 112.52 112 120 112 C120 99.46 120 86.92 120 74 C120.66 74 121.32 74 122 74 C122 86.54 122 99.08 122 112 C129.59 112 137.18 112 145 112 C145 99.46 145 86.92 145 74 C145.33 74 145.66 74 146 74 C146 86.54 146 99.08 146 112 C146.66 112 147.32 112 148 112 C148 109.03 148 106.06 148 103 C148.66 103 149.32 103 150 103 C150 101.02 150 99.04 150 97 C150.61875 97.7734375 150.61875 97.7734375 151.25 98.5625 C152.89734682 100.24735686 152.89734682 100.24735686 155.125 99.875 C155.74375 99.58625 156.3625 99.2975 157 99 C157.33 98.01 157.66 97.02 158 96 C158.99 97.485 158.99 97.485 160 99 C160.144375 98.38125 160.28875 97.7625 160.4375 97.125 C161 95 161 95 162 93 C162.66 93 163.32 93 164 93 C164 93.66 164 94.32 164 95 C164.66 95 165.32 95 166 95 C166 93.35 166 91.7 166 90 C164.68 90.33 163.36 90.66 162 91 C161.67 89.68 161.34 88.36 161 87 C163.97 87.495 163.97 87.495 167 88 C167.06058594 89.15757812 167.12117187 90.31515625 167.18359375 91.5078125 C167.26805502 93.04688457 167.35270018 94.58594655 167.4375 96.125 C167.47681641 96.88554687 167.51613281 97.64609375 167.55664062 98.4296875 C167.79509002 102.68509203 168.20230237 106.80370826 169 111 C169.71027344 111.06058594 170.42054688 111.12117188 171.15234375 111.18359375 C172.53099609 111.30927734 172.53099609 111.30927734 173.9375 111.4375 C174.85402344 111.51871094 175.77054688 111.59992188 176.71484375 111.68359375 C179 112 179 112 180 113 C180.10103255 115.79993597 180.13970088 118.57468644 180.1328125 121.375 C180.13424759 122.63449463 180.13424759 122.63449463 180.13571167 123.91943359 C180.13639348 125.69824295 180.13453917 127.47705477 180.13037109 129.25585938 C180.12502283 131.98833776 180.13031605 134.72065176 180.13671875 137.453125 C180.13605797 139.1770837 180.13477681 140.90104229 180.1328125 142.625 C180.13483673 143.44790527 180.13686096 144.27081055 180.13894653 145.11865234 C180.11495054 150.88504946 180.11495054 150.88504946 179 152 C177.19039129 152.09641497 175.37697872 152.12187398 173.56480408 152.12025452 C172.38544785 152.12162918 171.20609161 152.12300385 169.99099731 152.12442017 C168.6854892 152.12082489 167.37998108 152.11722961 166.03491211 152.11352539 C164.65547182 152.11324352 163.27603139 152.11340125 161.89659119 152.1139679 C158.14055882 152.11425588 154.38455811 152.10835905 150.62853312 152.10139394 C146.70739955 152.09516051 142.78626533 152.09455661 138.86512756 152.09336853 C131.43488389 152.09025518 124.00465486 152.08204175 116.57441765 152.07201904 C108.11748362 152.06085801 99.6605489 152.05534748 91.20360935 152.05032361 C73.80239775 152.03985914 56.40120042 152.02225963 39 152 C38.34 150.68 37.68 149.36 37 148 C36.35933594 148.20496094 35.71867187 148.40992188 35.05859375 148.62109375 C34.19363281 148.89050781 33.32867187 149.15992188 32.4375 149.4375 C31.59058594 149.70433594 30.74367188 149.97117187 29.87109375 150.24609375 C6.01115039 156.51135779 -20.98575774 152.49465213 -42.25 140.625 C-58.85683298 130.53149632 -69.55116064 114.50186435 -75.4375 96.125 C-80.55810668 74.88889092 -76.99738106 53.65873648 -66 35 C-63.82076116 31.84967774 -61.48395222 28.9124195 -59 26 C-58.38253906 25.18402344 -57.76507813 24.36804688 -57.12890625 23.52734375 C-46.2521687 10.6149599 -28.38359312 3.47671862 -12.25 0.25 C-8.15796025 -0.06477229 -4.10153304 -0.08370476 0 0 Z " fill="#36AE76" transform="translate(199,128)"/>
<path d="M0 0 C0.79059814 0.00563965 1.58119629 0.0112793 2.39575195 0.01708984 C20.2852826 0.37980039 36.75357701 5.85908969 50.5625 17.3125 C51.78259766 18.30636719 51.78259766 18.30636719 53.02734375 19.3203125 C59.03680456 24.41985495 59.03680456 24.41985495 60.73803711 27.30859375 C62.75031946 30.5992198 64.20659169 32.90226821 68.00268555 34.05078125 C71.19267552 34.3450476 74.29654402 34.36632075 77.5 34.3125 C78.73274658 34.32410156 79.96549316 34.33570313 81.2355957 34.34765625 C84.84460656 34.37955397 88.45182149 34.35773895 92.06079102 34.32861328 C96.7123623 34.29865293 101.36398018 34.30889098 106.015625 34.3125 C112.13936953 34.31522133 118.26299913 34.31398518 124.38671875 34.29492188 C138.80402885 34.25708422 153.16432011 34.50700742 167.5625 35.3125 C168.41175523 40.34226416 168.64257798 45.11241075 168.44140625 50.21484375 C168.41779526 50.9374086 168.39418427 51.65997345 168.36985779 52.4044342 C168.29398009 54.68652827 168.20963556 56.96821568 168.125 59.25 C168.07170304 60.80792356 168.01896333 62.3658663 167.96679688 63.92382812 C167.83846944 67.72030401 167.70255377 71.51643936 167.5625 75.3125 C164.9225 75.6425 162.2825 75.9725 159.5625 76.3125 C159.2325 80.2725 158.9025 84.2325 158.5625 88.3125 C157.2425 88.6425 155.9225 88.9725 154.5625 89.3125 C154.2325 88.9825 153.9025 88.6525 153.5625 88.3125 C153.5625 89.3025 153.5625 90.2925 153.5625 91.3125 C154.8825 90.9825 156.2025 90.6525 157.5625 90.3125 C157.5625 91.9625 157.5625 93.6125 157.5625 95.3125 C156.9025 95.3125 156.2425 95.3125 155.5625 95.3125 C155.5625 94.6525 155.5625 93.9925 155.5625 93.3125 C154.9025 93.3125 154.2425 93.3125 153.5625 93.3125 C153.2325 94.3025 152.9025 95.2925 152.5625 96.3125 C152.8925 96.6425 153.2225 96.9725 153.5625 97.3125 C152.9025 98.3025 152.2425 99.2925 151.5625 100.3125 C150.9025 99.3225 150.2425 98.3325 149.5625 97.3125 C149.2325 97.9725 148.9025 98.6325 148.5625 99.3125 C147.5725 99.6425 146.5825 99.9725 145.5625 100.3125 C144.9025 100.9725 144.2425 101.6325 143.5625 102.3125 C143.2325 100.9925 142.9025 99.6725 142.5625 98.3125 C142.24930856 99.70817835 141.93698212 101.10405082 141.625 102.5 C141.45097656 103.27730469 141.27695312 104.05460937 141.09765625 104.85546875 C140.55756959 107.33513668 140.06020422 109.82397892 139.5625 112.3125 C130.9825 112.3125 122.4025 112.3125 113.5625 112.3125 C113.5625 99.7725 113.5625 87.2325 113.5625 74.3125 C112.9025 74.3125 112.2425 74.3125 111.5625 74.3125 C111.5625 86.8525 111.5625 99.3925 111.5625 112.3125 C104.3025 112.3125 97.0425 112.3125 89.5625 112.3125 C89.5625 99.7725 89.5625 87.2325 89.5625 74.3125 C88.9025 74.3125 88.2425 74.3125 87.5625 74.3125 C87.5625 86.8525 87.5625 99.3925 87.5625 112.3125 C81.2925 112.3125 75.0225 112.3125 68.5625 112.3125 C69.5525 110.3325 70.5425 108.3525 71.5625 106.3125 C70.5725 105.9825 69.5825 105.6525 68.5625 105.3125 C68.5625 104.6525 68.5625 103.9925 68.5625 103.3125 C65.0975 104.3025 65.0975 104.3025 61.5625 105.3125 C62.2225 105.3125 62.8825 105.3125 63.5625 105.3125 C63.2325 107.2925 62.9025 109.2725 62.5625 111.3125 C65.72365776 109.94266497 66.5552092 109.3234362 68.5625 106.3125 C68.8925 106.9725 69.2225 107.6325 69.5625 108.3125 C68.62803465 110.34394641 67.63025224 112.34783587 66.5625 114.3125 C65.9025 114.3125 65.2425 114.3125 64.5625 114.3125 C62.39583333 115.14583333 62.39583333 115.14583333 61.5625 117.3125 C60.13305055 114.95811267 59.47588739 113.83217567 59.9375 111.0625 C60.14375 110.485 60.35 109.9075 60.5625 109.3125 C57.5925 108.8175 57.5925 108.8175 54.5625 108.3125 C54.8925 105.6725 55.2225 103.0325 55.5625 100.3125 C56.2225 100.3125 56.8825 100.3125 57.5625 100.3125 C57.68625 99.631875 57.81 98.95125 57.9375 98.25 C58.5625 95.3125 58.5625 95.3125 59.578125 92.359375 C63.03232694 80.32014058 62.21575844 63.43393997 56.5625 52.3125 C56.088125 51.32636719 55.61375 50.34023437 55.125 49.32421875 C46.73050372 33.44328468 34.13742766 25.01287194 17.5625 19.3125 C12.84591148 17.93297094 8.19128946 18.12837399 3.3125 18.125 C1.93771484 18.10663086 1.93771484 18.10663086 0.53515625 18.08789062 C-11.87425727 18.06133696 -23.32572009 22.12781427 -33.4375 29.3125 C-34.0975 29.3125 -34.7575 29.3125 -35.4375 29.3125 C-35.4375 29.9725 -35.4375 30.6325 -35.4375 31.3125 C-36.489375 32.116875 -36.489375 32.116875 -37.5625 32.9375 C-46.71346578 40.49699347 -52.13947194 52.13584934 -55.4375 63.3125 C-55.7675 63.3125 -56.0975 63.3125 -56.4375 63.3125 C-56.7675 60.6725 -57.0975 58.0325 -57.4375 55.3125 C-58.4275 55.3125 -59.4175 55.3125 -60.4375 55.3125 C-60.7675 53.6625 -61.0975 52.0125 -61.4375 50.3125 C-62.0975 50.9725 -62.7575 51.6325 -63.4375 52.3125 C-63.4375 52.9725 -63.4375 53.6325 -63.4375 54.3125 C-66.4075 54.8075 -66.4075 54.8075 -69.4375 55.3125 C-68.89510624 50.3316446 -67.25243108 46.40900341 -64.875 42.0625 C-64.51712402 41.40427246 -64.15924805 40.74604492 -63.79052734 40.06787109 C-52.69712837 20.18916097 -35.61272885 9.07389733 -14.4375 2.3125 C-13.48746094 1.94511719 -12.53742188 1.57773438 -11.55859375 1.19921875 C-7.63121917 0.08343148 -4.06294724 -0.03055176 0 0 Z " fill="#5FC47E" transform="translate(207.4375,127.6875)"/>
<path d="M0 0 C-0.33 0.66 -0.66 1.32 -1 2 C-3.57888483 2.80065378 -6.13893934 3.50983295 -8.75 4.1875 C-27.35646473 9.40182739 -42.82678928 20.43389616 -53 37 C-56.09548721 42.78550919 -58.92388218 48.77164653 -61 55 C-58.03 54.505 -58.03 54.505 -55 54 C-55.33 53.01 -55.66 52.02 -56 51 C-54.515 50.505 -54.515 50.505 -53 50 C-52.67 51.65 -52.34 53.3 -52 55 C-50.515 54.505 -50.515 54.505 -49 54 C-47.09003499 55.90996501 -47.84601236 59.3628666 -47.82421875 61.89453125 C-47.80097426 63.34050861 -47.77685522 64.78647212 -47.75195312 66.23242188 C-47.71719648 68.50521468 -47.68770991 70.77751406 -47.67407227 73.05053711 C-47.54388708 91.20636289 -42.37184095 106.19350925 -29.64453125 119.6796875 C-20.37532373 127.81249292 -7.35050536 134.11782105 5 135 C5.76183594 135.06316406 6.52367187 135.12632812 7.30859375 135.19140625 C22.8728916 135.90833527 38.81184712 129.88766342 50.8203125 120.14453125 C55.13387141 115.90054587 58.555022 110.95979102 62 106 C62.33 106.66 62.66 107.32 63 108 C65.02463255 108.65213292 65.02463255 108.65213292 67 109 C66.01 110.98 66.01 110.98 65 113 C65 112.01 65 111.02 65 110 C64.54625 110.495 64.0925 110.99 63.625 111.5 C62 113 62 113 60 113 C60 113.66 60 114.32 60 115 C60.99 114.67 61.98 114.34 63 114 C63 114.66 63 115.32 63 116 C63.99 116.33 64.98 116.66 66 117 C66 118.32 66 119.64 66 121 C66.99 121.33 67.98 121.66 69 122 C68.67 122.66 68.34 123.32 68 124 C67.34 124 66.68 124 66 124 C65.67 125.65 65.34 127.3 65 129 C64.01 128.67 63.02 128.34 62 128 C62.94933899 124.64566891 63.89748835 121.30753495 65 118 C63.68 117.67 62.36 117.34 61 117 C61 118.32 61 119.64 61 121 C61.66 121 62.32 121 63 121 C62.67 121.99 62.34 122.98 62 124 C62 123.34 62 122.68 62 122 C60.35 122 58.7 122 57 122 C57.33 122.66 57.66 123.32 58 124 C58.99 124.33 59.98 124.66 61 125 C61 126.32 61 127.64 61 129 C60.01 128.67 59.02 128.34 58 128 C58.99 130.475 58.99 130.475 60 133 C59.01 133 58.02 133 57 133 C57 132.34 57 131.68 57 131 C56.34 130.67 55.68 130.34 55 130 C54.34 130.33 53.68 130.66 53 131 C53 131.99 53 132.98 53 134 C54.32 134.66 55.64 135.32 57 136 C56.01 136 55.02 136 54 136 C53.67 136.66 53.34 137.32 53 138 C52.34 138 51.68 138 51 138 C50.67 138.99 50.34 139.98 50 141 C48.68 140.67 47.36 140.34 46 140 C46.99 140 47.98 140 49 140 C49 139.34 49 138.68 49 138 C47.68 137.67 46.36 137.34 45 137 C44.67 137.66 44.34 138.32 44 139 C44.33 139.66 44.66 140.32 45 141 C45 141.99 45 142.98 45 144 C39.375 146 39.375 146 36 146 C35.34 146.99 34.68 147.98 34 149 C24.79513352 152.13284138 15.19365397 152.48626475 5.5625 152.375 C4.29349854 152.36557373 3.02449707 152.35614746 1.71704102 152.34643555 C-18.61503109 152.01881469 -38.75851236 146.35224106 -54.00390625 132.12109375 C-70.77857091 114.29596086 -78.10162878 94.09203392 -77.37890625 69.7578125 C-76.52025131 53.24687399 -69.65751066 38.49586914 -59 26 C-58.38253906 25.18402344 -57.76507813 24.36804688 -57.12890625 23.52734375 C-46.2521687 10.6149599 -28.38359312 3.47671862 -12.25 0.25 C-8.15796025 -0.06477229 -4.10153304 -0.08370476 0 0 Z " fill="#5FC37E" transform="translate(199,128)"/>
<path d="M0 0 C-0.33 0.66 -0.66 1.32 -1 2 C-3.57888483 2.80065378 -6.13893934 3.50983295 -8.75 4.1875 C-27.40307947 9.41489083 -42.76164003 20.44265224 -53 37 C-62.98084161 54.81464171 -66.36016998 74.67020402 -61.3125 94.6875 C-55.3264308 115.27117654 -43.254537 131.15627541 -24.64453125 141.9453125 C-16.95787972 146.0232475 -9.56497405 148.50610918 -1 150 C-1 150.66 -1 151.32 -1 152 C-19.24220385 153.11686962 -38.11711738 145.23882445 -52.125 133.875 C-66.45230783 120.50086026 -76.3560549 101.9104326 -77.37890625 82.2421875 C-78.01694289 60.75935806 -73.14348469 42.58315338 -59 26 C-58.38253906 25.18402344 -57.76507813 24.36804688 -57.12890625 23.52734375 C-46.2521687 10.6149599 -28.38359312 3.47671862 -12.25 0.25 C-8.15796025 -0.06477229 -4.10153304 -0.08370476 0 0 Z " fill="#35726B" transform="translate(199,128)"/>
<path d="M0 0 C0.66826813 0.02361099 1.33653625 0.04722198 2.02505493 0.07154846 C4.09255997 0.1461595 6.15947823 0.23100764 8.2265625 0.31640625 C9.65622434 0.36983182 11.08591206 0.42256939 12.515625 0.47460938 C15.96127076 0.6014866 19.40647766 0.73752505 22.8515625 0.87890625 C23.70081773 5.90867041 23.93164048 10.678817 23.73046875 15.78125 C23.69505226 16.86509727 23.69505226 16.86509727 23.65892029 17.97084045 C23.58304259 20.25293452 23.49869806 22.53462193 23.4140625 24.81640625 C23.36076554 26.37432981 23.30802583 27.93227255 23.25585938 29.49023438 C23.12753194 33.28671026 22.99161627 37.08284561 22.8515625 40.87890625 C19.8815625 40.87890625 16.9115625 40.87890625 13.8515625 40.87890625 C13.8515625 40.21890625 13.8515625 39.55890625 13.8515625 38.87890625 C1.9715625 38.87890625 -9.9084375 38.87890625 -22.1484375 38.87890625 C-22.1484375 26.33890625 -22.1484375 13.79890625 -22.1484375 0.87890625 C-6.3984375 -0.24609375 -6.3984375 -0.24609375 0 0 Z " fill="#93D888" transform="translate(352.1484375,162.12109375)"/>
<path d="M0 0 C0.68603516 1.94946289 0.68603516 1.94946289 1.2890625 4.47265625 C1.61777344 5.82133789 1.61777344 5.82133789 1.953125 7.19726562 C2.17484375 8.14279297 2.3965625 9.08832031 2.625 10.0625 C2.85445313 11.01189453 3.08390625 11.96128906 3.3203125 12.93945312 C3.88759272 15.29130239 4.44712003 17.64473133 5 20 C5.11593506 19.42967041 5.23187012 18.85934082 5.35131836 18.27172852 C5.87613125 15.70116824 6.40673615 13.13183782 6.9375 10.5625 C7.11990234 9.66466797 7.30230469 8.76683594 7.49023438 7.84179688 C7.66748047 6.98779297 7.84472656 6.13378906 8.02734375 5.25390625 C8.18968506 4.46314697 8.35202637 3.6723877 8.51928711 2.85766602 C9 1 9 1 10 0 C11.51928038 -0.07179964 13.04167482 -0.08392007 14.5625 -0.0625 C15.38878906 -0.05347656 16.21507812 -0.04445313 17.06640625 -0.03515625 C17.70449219 -0.02355469 18.34257812 -0.01195312 19 0 C20.99251098 6.59061323 22.4855052 13.2857397 24 20 C24.27714844 18.89140625 24.55429687 17.7828125 24.83984375 16.640625 C26.2265625 11.09375 27.61328125 5.546875 29 0 C32.96 0 36.92 0 41 0 C39.59697923 5.37590476 38.19107572 10.75104401 36.7824707 16.12548828 C36.30348254 17.95470657 35.82528903 19.78413314 35.34790039 21.61376953 C34.6623987 24.24045826 33.97406206 26.86638981 33.28515625 29.4921875 C33.07157974 30.31306854 32.85800323 31.13394958 32.63795471 31.97970581 C31.11387171 37.77225659 31.11387171 37.77225659 30 40 C26.31105175 41.12717863 23.71148957 40.82823509 20 40 C19.35377959 37.58343624 18.70800996 35.16675354 18.0625 32.75 C17.88009766 32.06808594 17.69769531 31.38617188 17.50976562 30.68359375 C16.64946879 27.46139106 15.79316866 24.23946777 15 21 C12.53062327 27.2322365 10.6813917 33.51292846 9 40 C4.97959015 40.69584017 1.91736581 41.1700097 -2 40 C-3.26516068 35.10746087 -4.52853647 30.21446559 -5.7902832 25.32104492 C-6.21948388 23.65750778 -6.64916622 21.99409484 -7.0793457 20.33081055 C-7.69870606 17.93571181 -8.31631496 15.54016718 -8.93359375 13.14453125 C-9.12529648 12.4047554 -9.31699921 11.66497955 -9.51451111 10.90278625 C-10.4451081 7.28423157 -11.31572591 3.67363737 -12 0 C-10.37585622 -0.19477739 -8.75063577 -0.38059458 -7.125 -0.5625 C-6.22007812 -0.66691406 -5.31515625 -0.77132813 -4.3828125 -0.87890625 C-2 -1 -2 -1 0 0 Z " fill="#36736E" transform="translate(259,302)"/>
<path d="M0 0 C3.48897047 3.48897047 4.54453941 6.10379869 5 11 C-6.77904681 10.62427283 -6.77904681 10.62427283 -12 6 C-16.03556032 5.42349138 -18.22560394 5.61280197 -21.875 7.4375 C-24.87942161 11.060479 -25.29851972 14.35635986 -25 19 C-23.43818681 22.670261 -22.34089404 23.7727373 -19 26 C-17.04620501 26.27785432 -17.04620501 26.27785432 -15 26.1875 C-13.9790625 26.17783203 -13.9790625 26.17783203 -12.9375 26.16796875 C-10.78241791 26.05697746 -10.78241791 26.05697746 -8 25 C-8.33 24.34 -8.66 23.68 -9 23 C-11.12576782 22.53348793 -11.12576782 22.53348793 -13.5625 22.375 C-15.026875 22.25125 -16.49125 22.1275 -18 22 C-18.33 19.03 -18.66 16.06 -19 13 C-10.75 13 -2.5 13 6 13 C6 24.72576177 6 24.72576177 2 30 C-4.54802494 36.06054622 -9.84042404 37.42258243 -18.69921875 37.34375 C-24.92098363 36.69580289 -28.80165416 33.54425288 -32.875 29 C-37.20936314 22.88089909 -37.83406517 17.35213005 -37 10 C-35.35955167 4.66189246 -32.77437373 0.99786257 -28 -2 C-17.59696927 -7.01574696 -9.57308258 -6.56976256 0 0 Z " fill="#36736F" transform="translate(121,306)"/>
<path d="M0 0 C1.20269531 -0.00128906 2.40539062 -0.00257813 3.64453125 -0.00390625 C4.90652344 -0.00003906 6.16851562 0.00382813 7.46875 0.0078125 C9.36173828 0.00201172 9.36173828 0.00201172 11.29296875 -0.00390625 C12.49566406 -0.00261719 13.69835937 -0.00132812 14.9375 0 C16.04544922 0.00112793 17.15339844 0.00225586 18.29492188 0.00341797 C20.96875 0.1328125 20.96875 0.1328125 22.96875 1.1328125 C22.96875 13.6728125 22.96875 26.2128125 22.96875 39.1328125 C16.69875 39.1328125 10.42875 39.1328125 3.96875 39.1328125 C3.68 36.9259375 3.39125 34.7190625 3.09375 32.4453125 C2.51032036 27.98624309 1.68995425 24.27072801 -0.03125 20.1328125 C-0.33984375 18 -0.33984375 18 -0.46875 16.0078125 C-1.07462912 11.83397858 -1.25584431 11.76606326 -4.03125 9.1328125 C-5.19921875 7.08984375 -5.19921875 7.08984375 -6.21875 4.9453125 C-6.56292969 4.22988281 -6.90710938 3.51445312 -7.26171875 2.77734375 C-7.51566406 2.23464844 -7.76960938 1.69195312 -8.03125 1.1328125 C-5.28600448 -0.23981026 -3.06905705 0.0031244 0 0 Z " fill="#B5E289" transform="translate(281.03125,161.8671875)"/>
<path d="M0 0 C7.59 0 15.18 0 23 0 C23 12.21 23 24.42 23 37 C15.41 37 7.82 37 0 37 C0 24.79 0 12.58 0 0 Z " fill="#5DC37F" transform="translate(321,203)"/>
<path d="M0 0 C9.4369854 6.51601373 13.86840538 18.03924358 16 29 C17.62073941 45.53559387 13.69634133 59.89634906 3.05078125 72.90234375 C-0.84904068 76.89130447 -5.35295661 79.94821031 -10 83 C-10.59554687 83.4228125 -11.19109375 83.845625 -11.8046875 84.28125 C-22.13141579 91.06298201 -36.39833044 91.16721922 -48.1953125 89.56640625 C-61.45765543 86.77889031 -73.6873642 78.46782748 -81.55078125 67.4375 C-89.65057593 53.81412567 -92.3232523 38.92688286 -88.6875 23.375 C-87.70637438 19.58546719 -86.51925914 17.00617477 -84 14 C-84.31182069 15.41681634 -84.62448737 16.83344651 -84.9375 18.25 C-85.11152344 19.03890625 -85.28554687 19.8278125 -85.46484375 20.640625 C-85.78778896 22.06441266 -86.1326169 23.48382691 -86.51855469 24.8918457 C-89.61660883 38.45761523 -86.7469002 53.14113209 -79.6875 64.875 C-72.27547739 75.69466859 -62.76780674 82.67022657 -50 86 C-49.24332031 86.20496094 -48.48664063 86.40992188 -47.70703125 86.62109375 C-40.49858711 88.32619065 -33.37191018 88.19120228 -26 88 C-25.505 86.02 -25.505 86.02 -25 84 C-25 84.99 -25 85.98 -25 87 C-22.3144406 84.3144406 -21.93950026 81.62378672 -21 78 C-20.01 78 -19.02 78 -18 78 C-17.67 75.03 -17.34 72.06 -17 69 C-16.34 69 -15.68 69 -15 69 C-14.67 68.34 -14.34 67.68 -14 67 C-11.96448786 64.68691802 -11.02393066 64.00797689 -8 63 C-8.99 61.02 -8.99 61.02 -10 59 C-8.515 59.495 -8.515 59.495 -7 60 C-6.649375 59.54625 -6.29875 59.0925 -5.9375 58.625 C-3.22903794 56.35338666 -0.39204672 55.83201146 3 55 C2.34 54.34 1.68 53.68 1 53 C1.495 52.01 1.495 52.01 2 51 C6.67692308 52.47692308 6.67692308 52.47692308 8.3125 55.125 C8.539375 55.74375 8.76625 56.3625 9 57 C8.938125 56.05125 8.87625 55.1025 8.8125 54.125 C8.9053125 52.578125 8.9053125 52.578125 9 51 C9.99 50.34 10.98 49.68 12 49 C12.61884051 46.91053064 12.61884051 46.91053064 12.75 44.5625 C12.86601562 43.38880859 12.86601562 43.38880859 12.984375 42.19140625 C13.119258 39.81946768 13.119258 39.81946768 12 37 C12.66 37 13.32 37 14 37 C12.17955348 23.52230824 9.30514968 12.39987317 0 2 C0 1.34 0 0.68 0 0 Z " fill="#A3DF8D" transform="translate(247,167)"/>
<path d="M0 0 C0 12.54 0 25.08 0 38 C-7.26 38 -14.52 38 -22 38 C-22 25.46 -22 12.92 -22 0 C-7 -1 -7 -1 0 0 Z " fill="#B5E28B" transform="translate(328,163)"/>
<path d="M0 0 C4.15123533 0.80031653 8.28313444 0.63863776 12.4921875 0.48046875 C15.52681287 9.58434487 13.28190988 21.07431111 12.4921875 30.48046875 C5.96859105 31.60955275 5.96859105 31.60955275 3.48828125 30.9375 C1.19228392 30.23746896 1.19228392 30.23746896 -2.1953125 31.60546875 C-7.18545127 32.95541301 -11.05017653 32.01919857 -15.5078125 29.48046875 C-19.15219785 26.26890826 -20.72261571 22.73889927 -21.4453125 17.98046875 C-21.76589604 12.2682529 -20.88493211 8.06945291 -17.0703125 3.66796875 C-10.99569275 -1.51768225 -7.4359583 -1.8652488 0 0 Z M-10.5078125 11.48046875 C-11.74681723 14.1354789 -11.56840246 15.26840388 -10.7578125 18.10546875 C-9.60011867 20.76411512 -9.60011867 20.76411512 -6.5078125 22.48046875 C-3.21005818 22.98781557 -1.94977845 22.79103942 0.8046875 20.85546875 C2.99415999 17.77398895 3.11011915 16.18805866 2.4921875 12.48046875 C0.50459784 9.68312033 -0.60946527 8.63767951 -4.0078125 8.04296875 C-6.99992651 8.5665887 -8.36472911 9.33738536 -10.5078125 11.48046875 Z " fill="#35726D" transform="translate(321.5078125,311.51953125)"/>
<path d="M0 0 C7.26 0 14.52 0 22 0 C22 12.21 22 24.42 22 37 C14.74 37 7.48 37 0 37 C0 24.79 0 12.58 0 0 Z " fill="#35B277" transform="translate(285,242)"/>
<path d="M0 0 C0.34057617 2.88916016 0.34057617 2.88916016 0.29296875 6.5390625 C0.28330078 7.84101563 0.27363281 9.14296875 0.26367188 10.484375 C0.23860388 11.86458923 0.21320902 13.24479756 0.1875 14.625 C0.17245517 16.01300663 0.15876641 17.40102867 0.14648438 18.7890625 C0.1110257 22.19309509 0.06160298 25.59635622 0 29 C-3.01031744 29.93423645 -3.86650268 30.04449911 -7 29 C-7 29.99 -7 30.98 -7 32 C-5.515 31.505 -5.515 31.505 -4 31 C-4.33 32.32 -4.66 33.64 -5 35 C-3.68 35.33 -2.36 35.66 -1 36 C-2 37 -2 37 -3.94946289 37.11352539 C-5.1984436 37.10567017 -5.1984436 37.10567017 -6.47265625 37.09765625 C-7.28226807 37.09515869 -8.09187988 37.09266113 -8.92602539 37.09008789 C-9.96106201 37.08098389 -10.99609863 37.07187988 -12.0625 37.0625 C-15.341875 37.041875 -18.62125 37.02125 -22 37 C-22 24.46 -22 11.92 -22 -1 C-3.48387097 -2.32258065 -3.48387097 -2.32258065 0 0 Z " fill="#B7E28A" transform="translate(352,164)"/>
<path d="M0 0 C0.66 0 1.32 0 2 0 C2 12.54 2 25.08 2 38 C9.26 38 16.52 38 24 38 C24 25.46 24 12.92 24 0 C24.66 0 25.32 0 26 0 C26 12.54 26 25.08 26 38 C33.59 38 41.18 38 49 38 C49 25.46 49 12.92 49 0 C49.33 0 49.66 0 50 0 C50 12.54 50 25.08 50 38 C56.93 38 63.86 38 71 38 C71 38.33 71 38.66 71 39 C60.11 39 49.22 39 38 39 C38 51.54 38 64.08 38 77 C42.62 76.67 47.24 76.34 52 76 C51.67 74.68 51.34 73.36 51 72 C52.98 72.66 54.96 73.32 57 74 C58.61572115 72.93789104 58.61572115 72.93789104 60 71 C60.50858908 67.70728404 60.50858908 67.70728404 60.51171875 63.92578125 C60.53864555 62.90003242 60.53864555 62.90003242 60.56611633 61.8535614 C60.62022075 59.67327 60.6541134 57.49319744 60.6875 55.3125 C60.7206732 53.83265183 60.75516287 52.35283255 60.79101562 50.87304688 C60.87594524 47.24890831 60.94275635 43.62469348 61 40 C61.33 40 61.66 40 62 40 C62.06058594 41.31355469 62.12117188 42.62710938 62.18359375 43.98046875 C62.26803256 45.71615541 62.35267888 47.45183198 62.4375 49.1875 C62.47681641 50.05181641 62.51613281 50.91613281 62.55664062 51.80664062 C62.76347016 55.95914122 63.00103531 59.94537862 64 64 C64.66 63.67 65.32 63.34 66 63 C66.66 64.65 67.32 66.3 68 68 C68.99 68 69.98 68 71 68 C70.938125 67.21625 70.87625 66.4325 70.8125 65.625 C70.874375 64.75875 70.93625 63.8925 71 63 C74 61 74 61 77 61 C77 61.99 77 62.98 77 64 C78.485 64.495 78.485 64.495 80 65 C79.505 66.98 79.505 66.98 79 69 C77.68 69 76.36 69 75 69 C74.67 67.68 74.34 66.36 74 65 C74 66.65 74 68.3 74 70 C74.639375 70.103125 75.27875 70.20625 75.9375 70.3125 C76.618125 70.539375 77.29875 70.76625 78 71 C78.33 71.99 78.66 72.98 79 74 C79.99 73.34 80.98 72.68 82 72 C81.67 70.35 81.34 68.7 81 67 C81.99 67 82.98 67 84 67 C84.02688151 68.64574566 84.04634123 70.29161413 84.0625 71.9375 C84.07410156 72.85402344 84.08570313 73.77054687 84.09765625 74.71484375 C84 77 84 77 83 78 C81.55710213 78.09295815 80.10970215 78.11746513 78.66381836 78.11352539 C77.7429393 78.11344986 76.82206024 78.11337433 75.87327576 78.11329651 C74.87224319 78.10813522 73.87121063 78.10297394 72.83984375 78.09765625 C71.31043907 78.09553383 71.31043907 78.09553383 69.75013733 78.09336853 C66.47922893 78.08775097 63.20838787 78.0751955 59.9375 78.0625 C57.72591244 78.05748726 55.51432382 78.05292396 53.30273438 78.04882812 C47.86844248 78.0386248 42.43429702 78.01905285 37 78 C36.67 65.46 36.34 52.92 36 40 C25.11 39.505 25.11 39.505 14 39 C14 51.54 14 64.08 14 77 C13.34 77 12.68 77 12 77 C12 64.46 12 51.92 12 39 C4.41 39 -3.18 39 -11 39 C-11 51.54 -11 64.08 -11 77 C-11.33 77 -11.66 77 -12 77 C-12 64.46 -12 51.92 -12 39 C-13.98 39 -15.96 39 -18 39 C-18 38.67 -18 38.34 -18 38 C-12.06 38 -6.12 38 0 38 C0 25.46 0 12.92 0 0 Z " fill="#2B8761" transform="translate(295,202)"/>
<path d="M0 0 C3.12498063 -0.02895976 6.2499269 -0.04678483 9.375 -0.0625 C10.70917969 -0.07506836 10.70917969 -0.07506836 12.0703125 -0.08789062 C13.34648437 -0.09272461 13.34648437 -0.09272461 14.6484375 -0.09765625 C15.43395996 -0.10289307 16.21948242 -0.10812988 17.02880859 -0.11352539 C19 0 19 0 21 1 C21 12.55 21 24.1 21 36 C13.74 36 6.48 36 -1 36 C-1.14806378 12.01366743 -1.14806378 12.01366743 0 0 Z " fill="#35B277" transform="translate(310,243)"/>
<path d="M0 0 C2.91565529 2.91565529 4.47720951 4.83969085 4.8203125 8.984375 C4.79710937 9.77328125 4.77390625 10.5621875 4.75 11.375 C4.73195313 12.17421875 4.71390625 12.9734375 4.6953125 13.796875 C4.67210937 14.40015625 4.64890625 15.0034375 4.625 15.625 C-0.03037356 16.54592281 -4.52185433 16.74705997 -9.25 16.6875 C-10.28253906 16.68073242 -10.28253906 16.68073242 -11.3359375 16.67382812 C-13.01566335 16.66216336 -14.69534375 16.64423271 -16.375 16.625 C-15.07606825 18.20568306 -15.07606825 18.20568306 -13.375 19.625 C-9.54233708 19.48409916 -9.54233708 19.48409916 -6.375 17.625 C-4.68891034 17.55294489 -2.99999341 17.54113932 -1.3125 17.5625 C-0.39339844 17.57152344 0.52570313 17.58054687 1.47265625 17.58984375 C2.18292969 17.60144531 2.89320313 17.61304688 3.625 17.625 C2.80604165 21.5129841 1.33807348 23.67937736 -1.375 26.625 C-6.25845168 29.71211593 -11.81360869 29.33109288 -17.375 28.625 C-21.48646419 26.95022525 -23.74772206 24.49509521 -26.3125 20.9375 C-28.01238734 15.63785124 -28.57898158 10.56311143 -26.42578125 5.30859375 C-23.41162352 0.14554123 -20.37093786 -2.50950684 -14.5625 -4.1875 C-9.01250843 -4.51397009 -4.41028823 -3.48520338 0 0 Z M-14.5625 6.625 C-15.160625 7.285 -15.75875 7.945 -16.375 8.625 C-12.745 8.625 -9.115 8.625 -5.375 8.625 C-7.18722534 6.5625006 -7.18722534 6.5625006 -9.375 4.625 C-12.49998166 4.2876154 -12.49998166 4.2876154 -14.5625 6.625 Z " fill="#35726D" transform="translate(393.375,314.375)"/>
<path d="M0 0 C3.93686255 3.08102286 6.22644153 6.33274086 8 11 C8.1875 14.875 8.1875 14.875 8 18 C5.07330309 18.97556564 3.55938679 19.0606341 0.55078125 18.87890625 C-0.29677734 18.83056641 -1.14433594 18.78222656 -2.01757812 18.73242188 C-2.89865234 18.67634766 -3.77972656 18.62027344 -4.6875 18.5625 C-6.02651367 18.48418945 -6.02651367 18.48418945 -7.39257812 18.40429688 C-9.5954156 18.2747182 -11.79778873 18.13975754 -14 18 C-12.7476128 20.05944143 -12.7476128 20.05944143 -11 22 C-7.37436186 22.33380814 -7.37436186 22.33380814 -4 22 C-4 21.34 -4 20.68 -4 20 C-0.37 20 3.26 20 7 20 C5.0759065 24.81023376 3.77643236 26.68410817 0 30 C-5.8008561 31.9336187 -11.8981746 31.99359019 -17.4375 29.375 C-21.95347765 25.18945974 -24.61162547 21.38580947 -25.09375 15.08203125 C-24.84911363 9.64906526 -22.97368823 6.01794679 -19.25 2.125 C-12.71824658 -2.14576185 -7.20688454 -2.85836962 0 0 Z M-11 7 C-11 7.66 -11 8.32 -11 9 C-11.99 9.33 -12.98 9.66 -14 10 C-14 10.33 -14 10.66 -14 11 C-10.37 11 -6.74 11 -3 11 C-3 10.34 -3 9.68 -3 9 C-6.22791555 6.8480563 -7.28400809 6.79913557 -11 7 Z " fill="#35736D" transform="translate(172,312)"/>
<path d="M0 0 C3.88390164 4.15487152 5.52105904 8.21194462 5.875 13.875 C5.7821875 14.865 5.7821875 14.865 5.6875 15.875 C2.86338235 16.81637255 1.15831968 16.99225382 -1.76171875 16.97265625 C-2.60927734 16.96943359 -3.45683594 16.96621094 -4.33007812 16.96289062 C-5.21115234 16.95451172 -6.09222656 16.94613281 -7 16.9375 C-7.89267578 16.93298828 -8.78535156 16.92847656 -9.70507812 16.92382812 C-11.90761987 16.91204983 -14.11002599 16.89560164 -16.3125 16.875 C-14.05195195 19.43711123 -14.05195195 19.43711123 -10.75 20.1875 C-8.13453581 20.10466747 -8.13453581 20.10466747 -6.3125 17.875 C-3.9296875 17.6796875 -3.9296875 17.6796875 -1.1875 17.75 C-0.27742188 17.76804687 0.63265625 17.78609375 1.5703125 17.8046875 C2.26898438 17.82789063 2.96765625 17.85109375 3.6875 17.875 C3.53567368 20.53196068 3.21425976 22.31734524 1.35546875 24.28515625 C-3.85127838 28.63044644 -6.91555841 29.22563795 -13.55078125 29.15625 C-18.67705419 28.63419674 -21.29782946 25.99936465 -24.625 22.3125 C-27.57112553 18.05698534 -27.83960065 13.91599899 -27.3125 8.875 C-25.569038 4.19518093 -23.21315726 0.99552581 -19.3125 -2.125 C-12.26871885 -5.31435155 -6.33284129 -4.06257743 0 0 Z M-16.3125 6.875 C-16.3125 7.535 -16.3125 8.195 -16.3125 8.875 C-12.6825 8.875 -9.0525 8.875 -5.3125 8.875 C-7.06184898 6.79166921 -7.06184898 6.79166921 -9.3125 4.875 C-13.35872502 4.50519987 -13.35872502 4.50519987 -16.3125 6.875 Z " fill="#35746F" transform="translate(208.3125,314.125)"/>
<path d="M0 0 C2.61374292 1.93922862 2.94556379 2.83669136 4 6 C4.08239169 7.84610532 4.10743359 9.69505164 4.09765625 11.54296875 C4.09443359 12.61611328 4.09121094 13.68925781 4.08789062 14.79492188 C4.07951172 15.91447266 4.07113281 17.03402344 4.0625 18.1875 C4.05798828 19.31865234 4.05347656 20.44980469 4.04882812 21.61523438 C4.03703498 24.41020927 4.0205765 27.2050782 4 30 C0.7 30 -2.6 30 -6 30 C-6.495 20.1 -6.495 20.1 -7 10 C-9.475 9.505 -9.475 9.505 -12 9 C-14.0121205 11.0121205 -13.36817991 14.97689587 -13.5 17.75 C-13.71797224 22.23861361 -13.963044 26.61021959 -15 31 C-17.97 30.67 -20.94 30.34 -24 30 C-25.3302664 20.02300197 -25.09502917 10.04385176 -25 0 C-23.91332031 0.03480469 -23.91332031 0.03480469 -22.8046875 0.0703125 C-16.70270131 0.23457748 -16.70270131 0.23457748 -10.8125 -1.125 C-6.82895699 -2.36432449 -3.81886199 -1.52078575 0 0 Z " fill="#37736D" transform="translate(241,312)"/>
<path d="M0 0 C0.66 0 1.32 0 2 0 C2.061875 0.61875 2.12375 1.2375 2.1875 1.875 C2.455625 2.57625 2.72375 3.2775 3 4 C4.65697379 4.69040574 6.3255761 5.3530635 8 6 C11.58833167 8.85435474 12.84575542 10.27623698 13.8125 14.8125 C13.874375 15.864375 13.93625 16.91625 14 18 C13.34 18 12.68 18 12 18 C11.82984375 17.45730469 11.6596875 16.91460937 11.484375 16.35546875 C9.5913627 10.66557093 9.5913627 10.66557093 5 7 C4.01 6.67 3.02 6.34 2 6 C2 13.26 2 20.52 2 28 C3.98 28.66 5.96 29.32 8 30 C11.69872895 32.71240123 13.30323977 34.91814244 14.0625 39.375 C14.35651296 44.4152221 13.03432575 47.00746612 10 51 C7.01481593 53.25709039 5.75081172 54 2 54 C2 55.65 2 57.3 2 59 C1.34 59 0.68 59 0 59 C0 57.35 0 55.7 0 54 C-0.721875 53.938125 -1.44375 53.87625 -2.1875 53.8125 C-6.54237321 52.55442552 -8.92008861 49.69700362 -11.3125 45.9375 C-12 44 -12 44 -12 40 C-11.34 40 -10.68 40 -10 40 C-9.773125 41.0725 -9.54625 42.145 -9.3125 43.25 C-7.85300652 47.41998137 -6.66950445 48.67299718 -3 51 C-2.01 51.33 -1.02 51.66 0 52 C0 44.74 0 37.48 0 30 C-1.32 29.67 -2.64 29.34 -4 29 C-10.796875 23.9703125 -10.796875 23.9703125 -12 20 C-12.52718506 15.14989748 -11.56786682 12.12692882 -9 8 C-6.63981646 5.63981646 -5.59886578 5.04083176 -2.25 4.8125 C-1.13625 4.9053125 -1.13625 4.9053125 0 5 C0 3.35 0 1.7 0 0 Z " fill="#5B8C59" transform="translate(209,175)"/>
<path d="M0 0 C0 0.66 0 1.32 0 2 C-1.98 2.33 -3.96 2.66 -6 3 C-6 3.66 -6 4.32 -6 5 C-6.66 5 -7.32 5 -8 5 C-8 5.66 -8 6.32 -8 7 C-7.01 7.33 -6.02 7.66 -5 8 C-5.33 8.66 -5.66 9.32 -6 10 C-6.99 9.34 -7.98 8.68 -9 8 C-9.79953138 11.28696233 -10.09658936 12.71023192 -9 16 C-9.66 16.66 -10.32 17.32 -11 18 C-11.66 17.67 -12.32 17.34 -13 17 C-12.505 18.98 -12.505 18.98 -12 21 C-12.66 21 -13.32 21 -14 21 C-14.33 21.99 -14.66 22.98 -15 24 C-17.0625 24.6875 -17.0625 24.6875 -19 25 C-19 25.99 -19 26.98 -19 28 C-20.32 28 -21.64 28 -23 28 C-23.66 28.66 -24.32 29.32 -25 30 C-25.66 29.34 -26.32 28.68 -27 28 C-27 28.66 -27 29.32 -27 30 C-28 31 -28 31 -31 32 C-31 32.66 -31 33.32 -31 34 C-30.01 34.66 -29.02 35.32 -28 36 C-30.475 36.495 -30.475 36.495 -33 37 C-33 38.32 -33 39.64 -33 41 C-34.65 40.67 -36.3 40.34 -38 40 C-38.33 42.31 -38.66 44.62 -39 47 C-41.97 47.495 -41.97 47.495 -45 48 C-44.45760624 43.0191446 -42.81493108 39.09650341 -40.4375 34.75 C-40.07962402 34.09177246 -39.72174805 33.43354492 -39.35302734 32.75537109 C-32.41767037 20.32762455 -22.92905279 10.58313066 -10.625 3.4375 C-10.02993652 3.09058105 -9.43487305 2.74366211 -8.82177734 2.38623047 C-5.52037965 0.55795147 -3.87870524 0 0 0 Z " fill="#8BD48E" transform="translate(183,135)"/>
<path d="M0 0 C0 2.97 0 5.94 0 9 C1.32 9.33 2.64 9.66 4 10 C5.33332095 12.6666419 4.67102033 14.16680303 4 17 C3.01 17.33 2.02 17.66 1 18 C0.67 25.26 0.34 32.52 0 40 C-5 41 -5 41 -10 40 C-10 32.41 -10 24.82 -10 17 C-11.32 17 -12.64 17 -14 17 C-14.33 14.69 -14.66 12.38 -15 10 C-13.68 9.67 -12.36 9.34 -11 9 C-10.67 6.03 -10.34 3.06 -10 0 C-2.25 -1.125 -2.25 -1.125 0 0 Z " fill="#34716C" transform="translate(413,302)"/>
<path d="M0 0 C6.6 0 13.2 0 20 0 C20.86893638 6.08255467 20.90746463 9.25272399 20 15 C18.02 15 16.04 15 14 15 C14.33 16.98 14.66 18.96 15 21 C13.35 21.33 11.7 21.66 10 22 C9.67 22.99 9.34 23.98 9 25 C6.1875 25.6875 6.1875 25.6875 3 26 C1.3190918 24.85229492 1.3190918 24.85229492 0 23 C-0.34057617 20.5480957 -0.34057617 20.5480957 -0.29296875 17.67578125 C-0.2784668 16.13374023 -0.2784668 16.13374023 -0.26367188 14.56054688 C-0.23853516 13.48869141 -0.21339844 12.41683594 -0.1875 11.3125 C-0.16719727 9.68731445 -0.16719727 9.68731445 -0.14648438 8.02929688 C-0.11111023 5.35265296 -0.05730304 2.67626425 0 0 Z " fill="#B3E18A" transform="translate(355,163)"/>
<path d="M0 0 C3.63 0 7.26 0 11 0 C11 13.2 11 26.4 11 40 C7.7 40 4.4 40 1 40 C0.67 26.8 0.34 13.6 0 0 Z " fill="#35736D" transform="translate(338,302)"/>
<path d="M0 0 C0 13.2 0 26.4 0 40 C-3.3 40 -6.6 40 -10 40 C-10 26.8 -10 13.6 -10 0 C-2 -1 -2 -1 0 0 Z " fill="#36726D" transform="translate(363,302)"/>
<path d="M0 0 C0.66 0 1.32 0 2 0 C2 12.54 2 25.08 2 38 C9.26 38 16.52 38 24 38 C24 25.46 24 12.92 24 0 C24.66 0 25.32 0 26 0 C26 12.54 26 25.08 26 38 C33.59 38 41.18 38 49 38 C49 25.79 49 13.58 49 1 C49.33 1 49.66 1 50 1 C50 13.21 50 25.42 50 38 C53.96 38 57.92 38 62 38 C62.33 38.99 62.66 39.98 63 41 C56.07 40.67 49.14 40.34 42 40 C42 52.21 42 64.42 42 77 C41.67 77 41.34 77 41 77 C40.67 64.79 40.34 52.58 40 40 C33.20470948 39.97695644 26.40955637 39.9570691 19.61425781 39.94506836 C17.30598489 39.94006161 14.9977151 39.93325426 12.68945312 39.92456055 C9.35806501 39.91233395 6.02671908 39.90673495 2.6953125 39.90234375 C1.67511017 39.89718246 0.65490784 39.89202118 -0.39620972 39.88670349 C-5.9624024 39.88627461 -11.32281184 40.16264511 -16.83303833 40.97999573 C-19.39946995 41.0036877 -20.818329 40.29950157 -23 39 C-21 37 -21 37 -18.84521484 36.86474609 C-17.97590332 36.91711426 -17.1065918 36.96948242 -16.2109375 37.0234375 C-15.36321777 37.06903809 -14.51549805 37.11463867 -13.64208984 37.16162109 C-12.5639502 37.23203613 -11.48581055 37.30245117 -10.375 37.375 C-6.95125 37.58125 -3.5275 37.7875 0 38 C0 25.46 0 12.92 0 0 Z " fill="#5CB971" transform="translate(304,163)"/>
<path d="M0 0 C0 3.63 0 7.26 0 11 C-1.98 11.33 -3.96 11.66 -6 12 C-5.98839844 13.01320313 -5.97679687 14.02640625 -5.96484375 15.0703125 C-5.95545791 16.42187314 -5.94635857 17.7734358 -5.9375 19.125 C-5.92912109 19.79015625 -5.92074219 20.4553125 -5.91210938 21.140625 C-5.89217708 25.20681354 -6.21109839 29.0120092 -7 33 C-8.47906892 33.02689216 -9.95827483 33.04634621 -11.4375 33.0625 C-12.26121094 33.07410156 -13.08492187 33.08570313 -13.93359375 33.09765625 C-16 33 -16 33 -17 32 C-17.08783542 29.78144736 -17.10694609 27.56011504 -17.09765625 25.33984375 C-17.0962413 24.67537735 -17.09482635 24.01091095 -17.09336853 23.3263092 C-17.08775518 21.19666101 -17.07520054 19.06711661 -17.0625 16.9375 C-17.05748671 15.49674631 -17.05292351 14.05599097 -17.04882812 12.61523438 C-17.03778145 9.07678898 -17.02050792 5.53840461 -17 2 C-15.56274129 1.83126522 -14.12518162 1.66509263 -12.6875 1.5 C-11.88699219 1.4071875 -11.08648437 1.314375 -10.26171875 1.21875 C-8 1 -8 1 -5 1 C-0.75 0 -0.75 0 0 0 Z " fill="#326E69" transform="translate(147,310)"/>
<path d="M0 0 C0.33 0 0.66 0 1 0 C1.06058594 1.31355469 1.12117188 2.62710938 1.18359375 3.98046875 C1.26803256 5.71615541 1.35267888 7.45183198 1.4375 9.1875 C1.47681641 10.05181641 1.51613281 10.91613281 1.55664062 11.80664062 C1.76347016 15.95914122 2.00103531 19.94537862 3 24 C3.66 23.67 4.32 23.34 5 23 C5.66 24.65 6.32 26.3 7 28 C7.99 28 8.98 28 10 28 C9.938125 27.21625 9.87625 26.4325 9.8125 25.625 C9.9053125 24.325625 9.9053125 24.325625 10 23 C13 21 13 21 16 21 C16 21.99 16 22.98 16 24 C16.99 24.33 17.98 24.66 19 25 C18.67 26.32 18.34 27.64 18 29 C16.68 29 15.36 29 14 29 C13.505 27.02 13.505 27.02 13 25 C13 26.65 13 28.3 13 30 C13.639375 30.103125 14.27875 30.20625 14.9375 30.3125 C15.618125 30.539375 16.29875 30.76625 17 31 C17.495 32.485 17.495 32.485 18 34 C18.99 33.34 19.98 32.68 21 32 C20.67 30.35 20.34 28.7 20 27 C20.99 27 21.98 27 23 27 C23.02688151 28.64574566 23.04634123 30.29161413 23.0625 31.9375 C23.07410156 32.85402344 23.08570313 33.77054687 23.09765625 34.71484375 C23 37 23 37 22 38 C20.58774954 38.0928726 19.17091066 38.11746772 17.75561523 38.11352539 C16.85475693 38.11344986 15.95389862 38.11337433 15.02574158 38.11329651 C14.04658279 38.10813522 13.06742401 38.10297394 12.05859375 38.09765625 C11.06118668 38.0962413 10.0637796 38.09482635 9.03614807 38.09336853 C5.83656876 38.08775114 2.63705831 38.07519571 -0.5625 38.0625 C-2.72591045 38.05748724 -4.88932199 38.05292395 -7.05273438 38.04882812 C-12.36851325 38.03777607 -17.68425171 38.02102104 -23 38 C-23 37.67 -23 37.34 -23 37 C-18.38 36.67 -13.76 36.34 -9 36 C-9.33 34.68 -9.66 33.36 -10 32 C-8.02 32.66 -6.04 33.32 -4 34 C-2.38427885 32.93789104 -2.38427885 32.93789104 -1 31 C-0.49141092 27.70728404 -0.49141092 27.70728404 -0.48828125 23.92578125 C-0.47033005 23.2419487 -0.45237885 22.55811615 -0.43388367 21.8535614 C-0.37977925 19.67327 -0.3458866 17.49319744 -0.3125 15.3125 C-0.2793268 13.83265183 -0.24483713 12.35283255 -0.20898438 10.87304688 C-0.12405476 7.24890831 -0.05724365 3.62469348 0 0 Z " fill="#389473" transform="translate(356,242)"/>
<path d="M0 0 C1.60332791 -0.08121924 3.20784026 -0.13929134 4.8125 -0.1875 C6.15248047 -0.23970703 6.15248047 -0.23970703 7.51953125 -0.29296875 C10 0 10 0 11.80859375 1.31640625 C13.60263726 3.8515956 13.26205505 5.98636696 13 9 C12.67 9.33 12.34 9.66 12 10 C11.78732258 12.58757526 11.6232145 15.15793194 11.5 17.75 C11.28202776 22.23861361 11.036956 26.61021959 10 31 C7.03 30.67 4.06 30.34 1 30 C-0.3302664 20.02300197 -0.09502917 10.04385176 0 0 Z " fill="#2F6A66" transform="translate(216,312)"/>
<path d="M0 0 C9.4369854 6.51601373 13.86840538 18.03924358 16 29 C17.62262649 45.55484671 13.67318483 59.83379594 3.078125 72.88671875 C-0.82192826 76.85275036 -5.37930051 79.93345983 -10 83 C-10.66 82.67 -11.32 82.34 -12 82 C-12 81.34 -12 80.68 -12 80 C-11.34 80 -10.68 80 -10 80 C-10 79.01 -10 78.02 -10 77 C-11.32 76.34 -12.64 75.68 -14 75 C-13.67 74.01 -13.34 73.02 -13 72 C-12.34 72 -11.68 72 -11 72 C-10.67 72.66 -10.34 73.32 -10 74 C-9.67 73.01 -9.34 72.02 -9 71 C-8.01 71 -7.02 71 -6 71 C-5.34 71.66 -4.68 72.32 -4 73 C-3.505 72.505 -3.505 72.505 -3 72 C-3.66 71.67 -4.32 71.34 -5 71 C-3.515 70.01 -3.515 70.01 -2 69 C-2 68.01 -2 67.02 -2 66 C-2.66 66 -3.32 66 -4 66 C-4 65.34 -4 64.68 -4 64 C-3.34 64 -2.68 64 -2 64 C-1.67 63.34 -1.34 62.68 -1 62 C0.32 62.66 1.64 63.32 3 64 C3.66 63.34 4.32 62.68 5 62 C4.67 61.34 4.34 60.68 4 60 C5.485 60.495 5.485 60.495 7 61 C7.33 60.34 7.66 59.68 8 59 C7.34 58.67 6.68 58.34 6 58 C6 56.35 6 54.7 6 53 C6.99 54.32 7.98 55.64 9 57 C8.938125 56.05125 8.87625 55.1025 8.8125 54.125 C8.9053125 52.578125 8.9053125 52.578125 9 51 C9.99 50.34 10.98 49.68 12 49 C12.61884051 46.91053064 12.61884051 46.91053064 12.75 44.5625 C12.82734375 43.78003906 12.9046875 42.99757812 12.984375 42.19140625 C13.119258 39.81946768 13.119258 39.81946768 12 37 C12.66 37 13.32 37 14 37 C12.17955348 23.52230824 9.30514968 12.39987317 0 2 C0 1.34 0 0.68 0 0 Z " fill="#7AC676" transform="translate(247,167)"/>
<path d="M0 0 C0.66 0 1.32 0 2 0 C2.33 0.66 2.66 1.32 3 2 C3.99 2.33 4.98 2.66 6 3 C6 3.66 6 4.32 6 5 C7.32 4.67 8.64 4.34 10 4 C8.68 9.28 7.36 14.56 6 20 C4.68 19.67 3.36 19.34 2 19 C2 18.34 2 17.68 2 17 C-0.31 17.66 -2.62 18.32 -5 19 C-4.34 19 -3.68 19 -3 19 C-3.33 20.98 -3.66 22.96 -4 25 C-0.83884224 23.63016497 -0.0072908 23.0109362 2 20 C2.33 20.66 2.66 21.32 3 22 C2.06553465 24.03144641 1.06775224 26.03533587 0 28 C-0.66 28 -1.32 28 -2 28 C-4.16666667 28.83333333 -4.16666667 28.83333333 -5 31 C-6.42944945 28.64561267 -7.08661261 27.51967567 -6.625 24.75 C-6.41875 24.1725 -6.2125 23.595 -6 23 C-7.98 22.67 -9.96 22.34 -12 22 C-11.67 19.36 -11.34 16.72 -11 14 C-10.34 14 -9.68 14 -9 14 C-8.87625 13.319375 -8.7525 12.63875 -8.625 11.9375 C-7.90899123 8.5722588 -6.97054875 5.29986575 -6 2 C-5.01 2 -4.02 2 -3 2 C-2.34 4.31 -1.68 6.62 -1 9 C0.12516085 7.16715557 0.12516085 7.16715557 1 5 C0.67 4.01 0.34 3.02 0 2 C0 1.34 0 0.68 0 0 Z " fill="#5BBA81" transform="translate(274,214)"/>
<path d="M0 0 C2.97 0.495 2.97 0.495 6 1 C6.33 7.93 6.66 14.86 7 22 C5.68 22 4.36 22 3 22 C3 22.66 3 23.32 3 24 C-0.00313748 25.50156874 -2.79067522 25.09281204 -6.125 25.0625 C-7.40632813 25.05347656 -8.68765625 25.04445312 -10.0078125 25.03515625 C-11.48894531 25.01775391 -11.48894531 25.01775391 -13 25 C-13 22.03 -13 19.06 -13 16 C-12.34 16 -11.68 16 -11 16 C-11 14.02 -11 12.04 -11 10 C-10.5875 10.515625 -10.175 11.03125 -9.75 11.5625 C-8.10265318 13.24735686 -8.10265318 13.24735686 -5.875 12.875 C-5.25625 12.58625 -4.6375 12.2975 -4 12 C-3.67 11.01 -3.34 10.02 -3 9 C-2.01 10.485 -2.01 10.485 -1 12 C-0.855625 11.38125 -0.71125 10.7625 -0.5625 10.125 C0 8 0 8 1 6 C1.66 6 2.32 6 3 6 C3 6.66 3 7.32 3 8 C3.66 8 4.32 8 5 8 C5 6.35 5 4.7 5 3 C3.68 3.33 2.36 3.66 1 4 C0.67 2.68 0.34 1.36 0 0 Z " fill="#4CB97A" transform="translate(360,215)"/>
<path d="M0 0 C2.9375 0.8125 2.9375 0.8125 6 2 C6.33 2.99 6.66 3.98 7 5 C7.33 3.68 7.66 2.36 8 1 C14.875 1.875 14.875 1.875 16 3 C16.4652292 7.32490853 16.70500473 11.65935537 17 16 C10.07 16 3.14 16 -4 16 C-4.66 14.68 -5.32 13.36 -6 12 C-6.66 12 -7.32 12 -8 12 C-7.34 10.68 -6.68 9.36 -6 8 C-5.13375 8.2784375 -5.13375 8.2784375 -4.25 8.5625 C-1.79307475 9.04023546 -0.35602466 8.75729364 2 8 C1.2265625 6.8553125 1.2265625 6.8553125 0.4375 5.6875 C-0.036875 4.800625 -0.51125 3.91375 -1 3 C-0.67 2.01 -0.34 1.02 0 0 Z " fill="#38AE75" transform="translate(242,264)"/>
<path d="M0 0 C1.15286417 3.4585925 0.8528535 3.78845352 -0.4375 7 C-4.24981616 19.05468488 -3.18122321 33.57083117 2 45 C8.44441979 57.21887515 17.31040489 66.08936569 30.5 70.75 C31.99320316 71.19040372 33.49359051 71.60713673 35 72 C35.75667969 72.20496094 36.51335937 72.40992188 37.29296875 72.62109375 C44.50141289 74.32619065 51.62808982 74.19120228 59 74 C59.495 72.02 59.495 72.02 60 70 C60 70.99 60 71.98 60 73 C61.1446875 72.505 61.1446875 72.505 62.3125 72 C65 71 65 71 68 71 C68.495 69.515 68.495 69.515 69 68 C70.98 68.99 70.98 68.99 73 70 C62.45767062 76.89306152 48.96112293 77.2159959 36.8046875 75.56640625 C23.54234457 72.77889031 11.3126358 64.46782748 3.44921875 53.4375 C-4.64048792 39.83109309 -7.38628549 24.89505176 -3.625 9.375 C-2.71721874 6.02812968 -1.64803741 3.0524519 0 0 Z " fill="#7EC472" transform="translate(162,181)"/>
<path d="M0 0 C1.98 0 3.96 0 6 0 C6 8.25 6 16.5 6 25 C3.03 25 0.06 25 -3 25 C-3 24.34 -3 23.68 -3 23 C-4.32 23 -5.64 23 -7 23 C-6.835 22.38125 -6.67 21.7625 -6.5 21.125 C-5.92365356 19.03936614 -5.92365356 19.03936614 -6 17 C-5.67 16.01 -5.34 15.02 -5 14 C-3 15 -3 15 -2 16 C-1.67 15.01 -1.34 14.02 -1 13 C-1.66 13 -2.32 13 -3 13 C-2 11 -2 11 1 10 C0.43260132 5.87026372 0.43260132 5.87026372 -1 2 C-0.67 1.34 -0.34 0.68 0 0 Z " fill="#8ACC8D" transform="translate(369,178)"/>
<path d="M0 0 C1.8871875 0.061875 1.8871875 0.061875 3.8125 0.125 C3.668125 1.094375 3.52375 2.06375 3.375 3.0625 C2.83238094 6.79969324 2.45054129 10.5456364 2.09375 14.3046875 C1.8125 16.125 1.8125 16.125 0.8125 17.125 C-1.20714199 17.19744053 -3.22917124 17.20877188 -5.25 17.1875 C-6.35472656 17.17847656 -7.45945313 17.16945312 -8.59765625 17.16015625 C-9.87962891 17.14275391 -9.87962891 17.14275391 -11.1875 17.125 C-10.69273349 11.48466175 -9.80902175 7.16638799 -7.1875 2.125 C-4.09861478 0.06574319 -3.47814073 -0.1140374 0 0 Z " fill="#367370" transform="translate(136.1875,167.875)"/>
<path d="M0 0 C0 7.26 0 14.52 0 22 C-4.81313299 21.0373734 -6.17607157 20.60381954 -9.04296875 16.80859375 C-10.7747801 13.53582374 -10.90677087 10.56332615 -10 7 C-7.54189315 2.81579607 -5.0193243 0 0 0 Z " fill="#B6E189" transform="translate(209,181)"/>
<path d="M0 0 C5.01842472 1.00368494 5.94834154 1.29441472 9 5 C10.21762731 8.65288193 10.39075851 11.15754136 10 15 C8.60476927 17.59941327 7.22645352 18.92197672 5 21 C3.35 21.33 1.7 21.66 0 22 C0 14.74 0 7.48 0 0 Z " fill="#B4E08E" transform="translate(211,205)"/>
<path d="M0 0 C0.33 0 0.66 0 1 0 C1 12.21 1 24.42 1 37 C8.59 37 16.18 37 24 37 C24 24.79 24 12.58 24 0 C24.33 0 24.66 0 25 0 C25 12.21 25 24.42 25 37 C28.96 37 32.92 37 37 37 C37.33 37.99 37.66 38.98 38 40 C31.07 39.67 24.14 39.34 17 39 C17 51.21 17 63.42 17 76 C16.67 76 16.34 76 16 76 C16 63.46 16 50.92 16 38 C10.72 38 5.44 38 0 38 C0 25.46 0 12.92 0 0 Z " fill="#50AB69" transform="translate(329,164)"/>
<path d="M0 0 C3.16978814 2.17356901 5.14841223 4.44258193 7.32421875 7.59375 C4.1044464 6.0916853 1.30934967 4.23162964 -1.61328125 2.21875 C-14.30843037 -5.79307665 -28.53522672 -7.50988544 -43.171875 -4.74609375 C-57.72063645 -0.37578959 -67.85146043 8.95446252 -75.67578125 21.59375 C-76.00578125 20.60375 -76.33578125 19.61375 -76.67578125 18.59375 C-73.54148273 13.39587605 -69.16072782 8.6515588 -64.67578125 4.59375 C-64.07636719 4.03945312 -63.47695312 3.48515625 -62.859375 2.9140625 C-56.51783826 -2.52821397 -49.61155186 -5.0146479 -41.67578125 -7.40625 C-41.03125 -7.60863281 -40.38671875 -7.81101563 -39.72265625 -8.01953125 C-25.64876889 -10.67852905 -12.23716322 -7.00287297 0 0 Z " fill="#81C472" transform="translate(239.67578125,159.40625)"/>
<path d="M0 0 C0 0.99 0 1.98 0 3 C0.99 3.33 1.98 3.66 3 4 C2.67 5.32 2.34 6.64 2 8 C0.68 8 -0.64 8 -2 8 C-2.33 6.68 -2.66 5.36 -3 4 C-3 5.65 -3 7.3 -3 9 C-2.0409375 9.1546875 -2.0409375 9.1546875 -1.0625 9.3125 C-0.0415625 9.6528125 -0.0415625 9.6528125 1 10 C1.33 10.99 1.66 11.98 2 13 C2.99 12.34 3.98 11.68 5 11 C4.67 9.35 4.34 7.7 4 6 C4.99 6 5.98 6 7 6 C7.02688151 7.64574566 7.04634123 9.29161413 7.0625 10.9375 C7.07410156 11.85402344 7.08570313 12.77054687 7.09765625 13.71484375 C7 16 7 16 6 17 C3.13732433 17.07325168 0.299281 17.09238205 -2.5625 17.0625 C-3.36880859 17.05798828 -4.17511719 17.05347656 -5.00585938 17.04882812 C-7.00393756 17.03700518 -9.00197783 17.01906914 -11 17 C-11.33 15.68 -11.66 14.36 -12 13 C-9.03 13.33 -6.06 13.66 -3 14 C-3.66 13.67 -4.32 13.34 -5 13 C-5.4140625 10.49609375 -5.4140625 10.49609375 -5.625 7.4375 C-5.69976562 6.42558594 -5.77453125 5.41367187 -5.8515625 4.37109375 C-5.90054687 3.58863281 -5.94953125 2.80617188 -6 2 C-3 0 -3 0 0 0 Z " fill="#358970" transform="translate(372,263)"/>
<path d="M0 0 C3.0625 0.3125 3.0625 0.3125 4.9375 1.8125 C5.30875 2.3075 5.68 2.8025 6.0625 3.3125 C5.4025 5.2925 4.7425 7.2725 4.0625 9.3125 C7.0325 9.8075 7.0325 9.8075 10.0625 10.3125 C10.0625 20.8725 10.0625 31.4325 10.0625 42.3125 C9.7325 42.3125 9.4025 42.3125 9.0625 42.3125 C9.0625 32.4125 9.0625 22.5125 9.0625 12.3125 C7.4125 12.9725 5.7625 13.6325 4.0625 14.3125 C3.0725 14.3125 2.0825 14.3125 1.0625 14.3125 C0.4025 15.9625 -0.2575 17.6125 -0.9375 19.3125 C-2.9375 18.3125 -2.9375 18.3125 -3.625 16.4375 C-3.9375 14.3125 -3.9375 14.3125 -2.9375 11.3125 C-3.2675 10.6525 -3.5975 9.9925 -3.9375 9.3125 C-2.2875 9.6425 -0.6375 9.9725 1.0625 10.3125 C1.3925 8.9925 1.7225 7.6725 2.0625 6.3125 C1.4025 6.9725 0.7425 7.6325 0.0625 8.3125 C-0.9275 8.3125 -1.9175 8.3125 -2.9375 8.3125 C-2.9375 6.6625 -2.9375 5.0125 -2.9375 3.3125 C-3.5975 2.9825 -4.2575 2.6525 -4.9375 2.3125 C-2.9375 0.3125 -2.9375 0.3125 0 0 Z " fill="#409F80" transform="translate(272.9375,230.6875)"/>
<path d="M0 0 C4.29 0 8.58 0 13 0 C12.67 0.66 12.34 1.32 12 2 C8.7 2 5.4 2 2 2 C1.67 13.55 1.34 25.1 1 37 C8.77277038 34.97384121 8.77277038 34.97384121 11 31 C12.32 31 13.64 31 15 31 C15 31.66 15 32.32 15 33 C16.485 32.505 16.485 32.505 18 32 C17.67 33.32 17.34 34.64 17 36 C18.32 36.33 19.64 36.66 21 37 C20 38 20 38 18.05053711 38.11352539 C16.8015564 38.10567017 16.8015564 38.10567017 15.52734375 38.09765625 C14.71773193 38.09515869 13.90812012 38.09266113 13.07397461 38.09008789 C12.03893799 38.08098389 11.00390137 38.07187988 9.9375 38.0625 C6.658125 38.041875 3.37875 38.02125 0 38 C0 25.46 0 12.92 0 0 Z " fill="#ABE191" transform="translate(330,163)"/>
<path d="M0 0 C0.66 0 1.32 0 2 0 C1.979375 1.093125 1.95875 2.18625 1.9375 3.3125 C1.81455548 6.94384191 1.81455548 6.94384191 3 10 C2.34 10.66 1.68 11.32 1 12 C0.34 11.67 -0.32 11.34 -1 11 C-0.67 12.32 -0.34 13.64 0 15 C-0.66 15 -1.32 15 -2 15 C-2.33 15.99 -2.66 16.98 -3 18 C-5.0625 18.6875 -5.0625 18.6875 -7 19 C-7 19.99 -7 20.98 -7 22 C-8.32 22 -9.64 22 -11 22 C-11.66 22.66 -12.32 23.32 -13 24 C-13.99 21.36 -14.98 18.72 -16 16 C-15.34 16 -14.68 16 -14 16 C-13.67 15.67 -13.34 15.34 -13 15 C-11.67592331 14.31513275 -10.34090759 13.65129797 -9 13 C-8.2575 12.62875 -7.515 12.2575 -6.75 11.875 C-5.88375 11.441875 -5.88375 11.441875 -5 11 C-5 10.34 -5 9.68 -5 9 C-4.34 9 -3.68 9 -3 9 C-3.33 7.68 -3.66 6.36 -4 5 C-3.34 5 -2.68 5 -2 5 C-2 4.34 -2 3.68 -2 3 C-1.34 3 -0.68 3 0 3 C0 2.01 0 1.02 0 0 Z " fill="#7ACC81" transform="translate(171,141)"/>
<path d="M0 0 C0.66 0 1.32 0 2 0 C2.33 0.66 2.66 1.32 3 2 C3.99 2.33 4.98 2.66 6 3 C6 3.66 6 4.32 6 5 C7.32 4.67 8.64 4.34 10 4 C8.68 9.28 7.36 14.56 6 20 C5.67 18.68 5.34 17.36 5 16 C2.69 15.67 0.38 15.34 -2 15 C-2.33 14.01 -2.66 13.02 -3 12 C-2.34 12 -1.68 12 -1 12 C-0.34 10.02 0.32 8.04 1 6 C0.67 5.67 0.34 5.34 0 5 C-0.04063832 3.33382885 -0.042721 1.66611905 0 0 Z " fill="#56B17D" transform="translate(274,214)"/>
<path d="M0 0 C0 0.66 0 1.32 0 2 C-1.98 2.33 -3.96 2.66 -6 3 C-6 3.66 -6 4.32 -6 5 C-6.66 5 -7.32 5 -8 5 C-8 5.66 -8 6.32 -8 7 C-7.01 7.33 -6.02 7.66 -5 8 C-5.33 8.66 -5.66 9.32 -6 10 C-6.99 9.34 -7.98 8.68 -9 8 C-9 7.34 -9 6.68 -9 6 C-9.99 6 -10.98 6 -12 6 C-12 6.99 -12 7.98 -12 9 C-12.66 9 -13.32 9 -14 9 C-13.67 9.99 -13.34 10.98 -13 12 C-13.99 12.495 -13.99 12.495 -15 13 C-15 13.66 -15 14.32 -15 15 C-15.66 15 -16.32 15 -17 15 C-17 15.66 -17 16.32 -17 17 C-18.75 19.125 -18.75 19.125 -21 21 C-22.32 21 -23.64 21 -25 21 C-25 20.01 -25 19.02 -25 18 C-24.34 18 -23.68 18 -23 18 C-22.67 17.34 -22.34 16.68 -22 16 C-21.01 16 -20.02 16 -19 16 C-20.1490712 14.7018576 -20.1490712 14.7018576 -23 14 C-19.44414991 9.29035416 -16.09719767 6.43739088 -10.9375 3.625 C-10.32583984 3.27050781 -9.71417969 2.91601562 -9.08398438 2.55078125 C-5.70709657 0.65972408 -3.96179436 0 0 0 Z " fill="#9ADB94" transform="translate(183,135)"/>
<path d="M0 0 C7.38164833 1.2721208 13.06465642 2.9893912 18.4375 8.5 C20 11 20 11 20 15 C19.01 14.67 18.02 14.34 17 14 C17.66 14 18.32 14 19 14 C19 13.34 19 12.68 19 12 C18.34 12 17.68 12 17 12 C16.67 11.01 16.34 10.02 16 9 C12.58997819 7.16383441 10.09564741 5.95130456 6.1875 6.125 C3.65986811 6.89645827 3.65986811 6.89645827 2 10 C1.34 9.01 0.68 8.02 0 7 C-0.99 7 -1.98 7 -3 7 C-2.67 5.68 -2.34 4.36 -2 3 C-1.34 3 -0.68 3 0 3 C0 2.01 0 1.02 0 0 Z " fill="#326D67" transform="translate(105,300)"/>
<path d="M0 0 C1.65 0.99 3.3 1.98 5 3 C4.01 3.495 4.01 3.495 3 4 C2.26924352 6.3140622 1.59861742 8.64828869 1 11 C-2.31968684 11.85669338 -4.49482393 12 -8 12 C-8 11.01 -8 10.02 -8 9 C-8.66 9 -9.32 9 -10 9 C-10 8.34 -10 7.68 -10 7 C-9.34 7 -8.68 7 -8 7 C-8 6.34 -8 5.68 -8 5 C-6.35 5 -4.7 5 -3 5 C-3 4.01 -3 3.02 -3 2 C-2.01 1.34 -1.02 0.68 0 0 Z M3 0 C3.66 0 4.32 0 5 0 C4.67 0.66 4.34 1.32 4 2 C3.67 1.34 3.34 0.68 3 0 Z " fill="#56B87A" transform="translate(284,204)"/>
<path d="M0 0 C3.05917167 0.33990796 4.80401508 0.85698398 7.3125 2.6875 C9.48572438 5.6656223 9.47086916 7.39000313 9 11 C8.34 11.66 7.68 12.32 7 13 C7.3185177 15.10820797 7.3185177 15.10820797 8 17 C6.35 17.66 4.7 18.32 3 19 C2.67 17.68 2.34 16.36 2 15 C0.68 14.67 -0.64 14.34 -2 14 C-1.67 12.35 -1.34 10.7 -1 9 C-0.34 9.33 0.32 9.66 1 10 C0.67 10.99 0.34 11.98 0 13 C1.32 13 2.64 13 4 13 C4 11.68 4 10.36 4 9 C3.34 8.67 2.68 8.34 2 8 C1.3671875 6.15234375 1.3671875 6.15234375 0.875 3.9375 C0.62363281 2.83728516 0.62363281 2.83728516 0.3671875 1.71484375 C0.24601562 1.14894531 0.12484375 0.58304687 0 0 Z " fill="#359C76" transform="translate(370,258)"/>
<path d="M0 0 C0 7.26 0 14.52 0 22 C-4.81313299 21.0373734 -6.17607157 20.60381954 -9.04296875 16.80859375 C-10.7747801 13.53582374 -10.90677087 10.56332615 -10 7 C-7.54189315 2.81579607 -5.0193243 0 0 0 Z M-4 3 C-4 3.99 -4 4.98 -4 6 C-5.32 6.33 -6.64 6.66 -8 7 C-8 9.97 -8 12.94 -8 16 C-7.34 16 -6.68 16 -6 16 C-5.67 16.99 -5.34 17.98 -5 19 C-3.68 19 -2.36 19 -1 19 C-1 13.72 -1 8.44 -1 3 C-1.99 3 -2.98 3 -4 3 Z " fill="#ADDE9A" transform="translate(209,181)"/>
<path d="M0 0 C0.33 0 0.66 0 1 0 C1.06058594 1.31355469 1.12117188 2.62710938 1.18359375 3.98046875 C1.26803256 5.71615541 1.35267888 7.45183198 1.4375 9.1875 C1.47681641 10.05181641 1.51613281 10.91613281 1.55664062 11.80664062 C1.76347016 15.95914122 2.00103531 19.94537862 3 24 C3.66 23.67 4.32 23.34 5 23 C5.268125 23.804375 5.53625 24.60875 5.8125 25.4375 C6.204375 26.283125 6.59625 27.12875 7 28 C7.99 28.33 8.98 28.66 10 29 C9.67 30.32 9.34 31.64 9 33 C7.02 32.67 5.04 32.34 3 32 C2.34 30.02 1.68 28.04 1 26 C1.33 28.97 1.66 31.94 2 35 C1.34 35 0.68 35 0 35 C0 23.45 0 11.9 0 0 Z " fill="#2A8B6B" transform="translate(356,242)"/>
<path d="M0 0 C0.625 2.0625 0.625 2.0625 1 4 C0.34 4 -0.32 4 -1 4 C-1 4.99 -1 5.98 -1 7 C-2.98 7 -4.96 7 -7 7 C-7.66 8.32 -8.32 9.64 -9 11 C-9.99 7.37 -10.98 3.74 -12 0 C-2.25 -1.125 -2.25 -1.125 0 0 Z " fill="#326F6A" transform="translate(259,302)"/>
<path d="M0 0 C0.66 0.99 1.32 1.98 2 3 C2.66 3.66 3.32 4.32 4 5 C4.66 5 5.32 5 6 5 C6 11.27 6 17.54 6 24 C5.34 23.67 4.68 23.34 4 23 C3.5859375 20.27734375 3.5859375 20.27734375 3.375 16.9375 C3.30023438 15.83277344 3.22546875 14.72804688 3.1484375 13.58984375 C3.09945313 12.73519531 3.05046875 11.88054687 3 11 C1.68 10.67 0.36 10.34 -1 10 C-1 9.34 -1 8.68 -1 8 C-1.99 7.34 -2.98 6.68 -4 6 C-3.34 6 -2.68 6 -2 6 C-2.33 4.35 -2.66 2.7 -3 1 C-2.01 0.67 -1.02 0.34 0 0 Z " fill="#32906A" transform="translate(254,256)"/>
<path d="M0 0 C0.33 0.66 0.66 1.32 1 2 C4.63 2 8.26 2 12 2 C10.40109514 7.19644079 8.25861997 12.06612142 6 17 C5.67 17 5.34 17 5 17 C4.97311849 15.35425434 4.95365877 13.70838587 4.9375 12.0625 C4.92589844 11.14597656 4.91429687 10.22945312 4.90234375 9.28515625 C5 7 5 7 6 6 C1.34947128 5.73067479 1.34947128 5.73067479 -3 7 C-1.125 2.25 -1.125 2.25 0 0 Z " fill="#3A7366" transform="translate(133,163)"/>
<path d="M0 0 C0 12.54 0 25.08 0 38 C-6.27 38 -12.54 38 -19 38 C-19 36.02 -19 34.04 -19 32 C-18.01 33.32 -17.02 34.64 -16 36 C-11.05 36.33 -6.1 36.66 -1 37 C-1 25.12 -1 13.24 -1 1 C-3.31 1 -5.62 1 -8 1 C-5 -1 -5 -1 0 0 Z " fill="#B0E599" transform="translate(304,163)"/>
<path d="M0 0 C0.99 0.33 1.98 0.66 3 1 C3.625 2.875 3.625 2.875 4 5 C4.33 5.99 4.66 6.98 5 8 C4.67 8.66 4.34 9.32 4 10 C3.34 10 2.68 10 2 10 C2 10.66 2 11.32 2 12 C-0.31 12.33 -2.62 12.66 -5 13 C-5 12.34 -5 11.68 -5 11 C-4.34 10.67 -3.68 10.34 -3 10 C-4.32 9.34 -5.64 8.68 -7 8 C-6.67 7.01 -6.34 6.02 -6 5 C-5.34 5 -4.68 5 -4 5 C-4 5.66 -4 6.32 -4 7 C-3.34 7 -2.68 7 -2 7 C-2.33 6.01 -2.66 5.02 -3 4 C-2.01 4 -1.02 4 0 4 C0 2.68 0 1.36 0 0 Z " fill="#40B677" transform="translate(361,227)"/>
<path d="M0 0 C0.33 0 0.66 0 1 0 C1 5.28 1 10.56 1 16 C0.01 16.33 -0.98 16.66 -2 17 C-4.125 14.875 -4.125 14.875 -6 12 C-5.20146551 7.30860989 -2.79914269 3.79238687 0 0 Z " fill="#B6E189" transform="translate(207,208)"/>
<path d="M0 0 C0 0.99 0 1.98 0 3 C0.99 3.33 1.98 3.66 3 4 C2.67 5.32 2.34 6.64 2 8 C0.68 8 -0.64 8 -2 8 C-2.33 6.68 -2.66 5.36 -3 4 C-3 5.65 -3 7.3 -3 9 C-1.68 9.33 -0.36 9.66 1 10 C1 11.32 1 12.64 1 14 C0.01 14.33 -0.98 14.66 -2 15 C-2.33 14.34 -2.66 13.68 -3 13 C-3.66 13 -4.32 13 -5 13 C-5.33 9.37 -5.66 5.74 -6 2 C-3 0 -3 0 0 0 Z " fill="#2D8A6C" transform="translate(372,263)"/>
<path d="M0 0 C3.0625 0.3125 3.0625 0.3125 4.9375 1.8125 C5.30875 2.3075 5.68 2.8025 6.0625 3.3125 C5.4025 5.2925 4.7425 7.2725 4.0625 9.3125 C5.7125 9.6425 7.3625 9.9725 9.0625 10.3125 C9.0625 10.6425 9.0625 10.9725 9.0625 11.3125 C6.4225 11.6425 3.7825 11.9725 1.0625 12.3125 C1.7225 9.6725 2.3825 7.0325 3.0625 4.3125 C2.4128125 5.3025 2.4128125 5.3025 1.75 6.3125 C1.193125 6.9725 0.63625 7.6325 0.0625 8.3125 C-0.9275 8.3125 -1.9175 8.3125 -2.9375 8.3125 C-2.9375 6.6625 -2.9375 5.0125 -2.9375 3.3125 C-3.5975 2.9825 -4.2575 2.6525 -4.9375 2.3125 C-2.9375 0.3125 -2.9375 0.3125 0 0 Z " fill="#3E956C" transform="translate(272.9375,230.6875)"/>
<path d="M0 0 C0 6.27 0 12.54 0 19 C-0.33 19 -0.66 19 -1 19 C-1.16276042 17.01432292 -1.32552083 15.02864583 -1.48828125 13.04296875 C-2.11611008 10.53644602 -3.14087062 9.74976883 -5 8 C-6.16796875 5.95703125 -6.16796875 5.95703125 -7.1875 3.8125 C-7.53167969 3.09707031 -7.87585938 2.38164062 -8.23046875 1.64453125 C-8.48441406 1.10183594 -8.73835938 0.55914062 -9 0 C-7 -1 -7 -1 0 0 Z " fill="#8ED88A" transform="translate(282,163)"/>
<path d="M0 0 C1.32 0.33 2.64 0.66 4 1 C4.042721 2.66611905 4.04063832 4.33382885 4 6 C3.67 6.33 3.34 6.66 3 7 C2.855625 7.825 2.71125 8.65 2.5625 9.5 C2.376875 10.325 2.19125 11.15 2 12 C0 13 0 13 -3 14 C-6 12 -6 12 -6.6875 9.875 C-6.790625 9.25625 -6.89375 8.6375 -7 8 C-4 9 -4 9 -3 10 C-2.67 9.01 -2.34 8.02 -2 7 C-2.66 7 -3.32 7 -4 7 C-3 5 -3 5 0 4 C0 2.68 0 1.36 0 0 Z " fill="#79C87A" transform="translate(370,184)"/>
<path d="M0 0 C1.32 0.33 2.64 0.66 4 1 C4 2.98 4 4.96 4 7 C4.99 7 5.98 7 7 7 C7 8.65 7 10.3 7 12 C4.03 11.67 1.06 11.34 -2 11 C-1.125 2.25 -1.125 2.25 0 0 Z " fill="#34716B" transform="translate(219,331)"/>
<path d="M0 0 C0.33 0.66 0.66 1.32 1 2 C1.99 2 2.98 2 4 2 C3.67 5.96 3.34 9.92 3 14 C2.01 14 1.02 14 0 14 C0 14.66 0 15.32 0 16 C-1.32 15.34 -2.64 14.68 -4 14 C-3.67 12.68 -3.34 11.36 -3 10 C-2.01 10.99 -1.02 11.98 0 13 C0 11.68 0 10.36 0 9 C-1.32 8.67 -2.64 8.34 -4 8 C-4 7.34 -4 6.68 -4 6 C-3.34 6 -2.68 6 -2 6 C-1.67 5.34 -1.34 4.68 -1 4 C-1 4.66 -1 5.32 -1 6 C-0.67 5.67 -0.34 5.34 0 5 C-0.165 4.34 -0.33 3.68 -0.5 3 C-0.665 2.34 -0.83 1.68 -1 1 C-0.67 0.67 -0.34 0.34 0 0 Z " fill="#3E956A" transform="translate(260,244)"/>
<path d="M0 0 C1.32 0 2.64 0 4 0 C6 3 6 3 6 6 C6.66 6 7.32 6 8 6 C7.67 6.99 7.34 7.98 7 9 C7 8.34 7 7.68 7 7 C5.35 7 3.7 7 2 7 C2.33 7.66 2.66 8.32 3 9 C3.99 9.33 4.98 9.66 6 10 C6 11.32 6 12.64 6 14 C3 13 3 13 1 11 C0.01 11.495 0.01 11.495 -1 12 C-0.9278125 11.30132812 -0.855625 10.60265625 -0.78125 9.8828125 C-0.6884375 8.97273437 -0.595625 8.06265625 -0.5 7.125 C-0.4071875 6.22007812 -0.314375 5.31515625 -0.21875 4.3828125 C0.03047295 2.06686789 0.03047295 2.06686789 0 0 Z " fill="#5AB680" transform="translate(254,243)"/>
<path d="M0 0 C0.66 1.32 1.32 2.64 2 4 C-0.475 5.485 -0.475 5.485 -3 7 C-2.34 7 -1.68 7 -1 7 C-1 8.32 -1 9.64 -1 11 C-1.66 11 -2.32 11 -3 11 C-3 10.34 -3 9.68 -3 9 C-3.66 9 -4.32 9 -5 9 C-5 7.68 -5 6.36 -5 5 C-5.433125 5.495 -5.86625 5.99 -6.3125 6.5 C-8 8 -8 8 -11 8 C-10.25 6.0625 -10.25 6.0625 -9 4 C-6.9375 3.375 -6.9375 3.375 -5 3 C-4.67 2.34 -4.34 1.68 -4 1 C-1.9375 0.375 -1.9375 0.375 0 0 Z " fill="#8ED684" transform="translate(369,184)"/>
<path d="M0 0 C0 0.66 0 1.32 0 2 C-0.66 2 -1.32 2 -2 2 C-2.66 5.3 -3.32 8.6 -4 12 C-8.76307437 12.95261487 -13.1666528 13.08333357 -18 13 C-18 12.67 -18 12.34 -18 12 C-16.35 12 -14.7 12 -13 12 C-13 11.34 -13 10.68 -13 10 C-10.69 9.34 -8.38 8.68 -6 8 C-5.8453125 6.576875 -5.8453125 6.576875 -5.6875 5.125 C-4.89960329 1.54365133 -3.89650761 0 0 0 Z " fill="#A7DF8C" transform="translate(225,243)"/>
<path d="M0 0 C6.6 0 13.2 0 20 0 C19.67 0.66 19.34 1.32 19 2 C17.14453125 2.4140625 17.14453125 2.4140625 14.8125 2.625 C14.00296875 2.69976562 13.1934375 2.77453125 12.359375 2.8515625 C9.57030851 3.02703357 6.79369154 3 4 3 C3.01 3.495 3.01 3.495 2 4 C1.53476937 5.89533342 1.53476937 5.89533342 1.375 8.0625 C1.25125 9.361875 1.1275 10.66125 1 12 C0.67 12 0.34 12 0 12 C0 8.04 0 4.08 0 0 Z " fill="#B0DD94" transform="translate(355,163)"/>
<path d="M0 0 C1.32 0.33 2.64 0.66 4 1 C3.67 2.32 3.34 3.64 3 5 C6.63 5.66 10.26 6.32 14 7 C14 7.66 14 8.32 14 9 C10.37 9 6.74 9 3 9 C2.67 9.66 2.34 10.32 2 11 C0.80712589 7.12315913 0 4.08378077 0 0 Z " fill="#356060" transform="translate(123,217)"/>
<path d="M0 0 C0.66 0 1.32 0 2 0 C2.33 0.66 2.66 1.32 3 2 C3.99 1.67 4.98 1.34 6 1 C6.66 1.66 7.32 2.32 8 3 C8.66 3.33 9.32 3.66 10 4 C8.55609075 7.80666984 6.65047197 9.26602582 3 11 C2.34 10.67 1.68 10.34 1 10 C1 9.34 1 8.68 1 8 C1.66 8 2.32 8 3 8 C3 7.01 3 6.02 3 5 C1.68 4.34 0.36 3.68 -1 3 C-0.67 2.01 -0.34 1.02 0 0 Z " fill="#88D07E" transform="translate(234,239)"/>
<path d="M0 0 C0.66 0 1.32 0 2 0 C2.33 0.66 2.66 1.32 3 2 C3.99 2.33 4.98 2.66 6 3 C6 3.66 6 4.32 6 5 C7.32 4.67 8.64 4.34 10 4 C9.67 5.98 9.34 7.96 9 10 C6.36 9.67 3.72 9.34 1 9 C1.33 7.68 1.66 6.36 2 5 C1.34 5 0.68 5 0 5 C0 3.35 0 1.7 0 0 Z " fill="#45A170" transform="translate(274,214)"/>
<path d="M0 0 C1.65 0 3.3 0 5 0 C1.93551666 3.30021283 -0.95459958 5.97729979 -5 8 C-8.40716486 8.03570382 -11.65220737 7.60868957 -15 7 C-14.1328125 5.046875 -14.1328125 5.046875 -13 3 C-10.875 2.25 -10.875 2.25 -9 2 C-9.33 3.32 -9.66 4.64 -10 6 C-8.35 6 -6.7 6 -5 6 C-5 5.34 -5 4.68 -5 4 C-4.360625 3.71125 -3.72125 3.4225 -3.0625 3.125 C-0.84793921 2.17176549 -0.84793921 2.17176549 0 0 Z " fill="#3A6F6A" transform="translate(166,139)"/>
<path d="M0 0 C1.23556641 0.01740234 1.23556641 0.01740234 2.49609375 0.03515625 C3.32238281 0.04417969 4.14867187 0.05320312 5 0.0625 C5.63808594 0.07410156 6.27617187 0.08570313 6.93359375 0.09765625 C7.26359375 0.75765625 7.59359375 1.41765625 7.93359375 2.09765625 C7.60359375 2.75765625 7.27359375 3.41765625 6.93359375 4.09765625 C6.27359375 4.09765625 5.61359375 4.09765625 4.93359375 4.09765625 C4.93359375 4.75765625 4.93359375 5.41765625 4.93359375 6.09765625 C2.95359375 6.42765625 0.97359375 6.75765625 -1.06640625 7.09765625 C-1.72640625 5.11765625 -2.38640625 3.13765625 -3.06640625 1.09765625 C-2.06640625 0.09765625 -2.06640625 0.09765625 0 0 Z " fill="#32746D" transform="translate(271.06640625,301.90234375)"/>
<path d="M0 0 C2.9719385 1.12451727 5.33440687 2.22293791 8 4 C7.67 5.98 7.34 7.96 7 10 C6.38125 9.814375 5.7625 9.62875 5.125 9.4375 C2.95839822 8.76313824 2.95839822 8.76313824 1 10 C0.67 6.7 0.34 3.4 0 0 Z " fill="#B4E287" transform="translate(212,183)"/>
<path d="M0 0 C0 0.66 0 1.32 0 2 C1.32 2.66 2.64 3.32 4 4 C3.01 4 2.02 4 1 4 C0.67 4.66 0.34 5.32 0 6 C-0.66 6 -1.32 6 -2 6 C-2.33 6.99 -2.66 7.98 -3 9 C-4.32 8.67 -5.64 8.34 -7 8 C-6.01 8 -5.02 8 -4 8 C-4 7.34 -4 6.68 -4 6 C-5.32 5.67 -6.64 5.34 -8 5 C-8.33 5.66 -8.66 6.32 -9 7 C-8.62607279 4.28902773 -8.18642373 3.17999533 -6.1875 1.25 C-4 0 -4 0 0 0 Z " fill="#5DBB86" transform="translate(252,260)"/>
<path d="M0 0 C1.32 0.33 2.64 0.66 4 1 C3.67 3.31 3.34 5.62 3 8 C2.34 8 1.68 8 1 8 C1 7.34 1 6.68 1 6 C0.34 6 -0.32 6 -1 6 C-0.67 7.32 -0.34 8.64 0 10 C-0.763125 9.814375 -1.52625 9.62875 -2.3125 9.4375 C-5.08967375 8.77180827 -5.08967375 8.77180827 -8 10 C-7.67 8.68 -7.34 7.36 -7 6 C-4.01758453 5.22678118 -1.02419525 4.58803797 2 4 C1.01 3.34 0.02 2.68 -1 2 C-0.67 1.34 -0.34 0.68 0 0 Z " fill="#95D17E" transform="translate(249,218)"/>
<path d="M0 0 C0.99 0 1.98 0 3 0 C3 0.66 3 1.32 3 2 C2.67 2.33 2.34 2.66 2 3 C2.33 3.66 2.66 4.32 3 5 C-0.13349732 6.04449911 -0.98968256 5.93423645 -4 5 C-4 5.66 -4 6.32 -4 7 C-2.68 7.33 -1.36 7.66 0 8 C-2.78823655 9.0326802 -3.8677274 9.04509293 -6.75 8.0625 C-7.4925 7.711875 -8.235 7.36125 -9 7 C-9 6.34 -9 5.68 -9 5 C-8.34 5 -7.68 5 -7 5 C-7 4.34 -7 3.68 -7 3 C-3.535 2.505 -3.535 2.505 0 2 C0 1.34 0 0.68 0 0 Z " fill="#74CD80" transform="translate(184,135)"/>
<path d="M0 0 C1.98 0 3.96 0 6 0 C4.68 0.33 3.36 0.66 2 1 C2.226875 1.515625 2.45375 2.03125 2.6875 2.5625 C3.16616664 6.29609982 1.67699986 8.70589313 0 12 C-1.6875 13.9375 -1.6875 13.9375 -3 15 C-3.66 14.67 -4.32 14.34 -5 14 C-5 12.68 -5 11.36 -5 10 C-3.68 9.67 -2.36 9.34 -1 9 C-0.67 6.03 -0.34 3.06 0 0 Z " fill="#377065" transform="translate(403,302)"/>
<path d="M0 0 C2 1 4 2 6 3 C6.66 2.34 7.32 1.68 8 1 C8.99 1 9.98 1 11 1 C11.33 2.65 11.66 4.3 12 6 C9.03 6 6.06 6 3 6 C3 5.34 3 4.68 3 4 C1.68 4 0.36 4 -1 4 C-0.67 2.68 -0.34 1.36 0 0 Z " fill="#76BE83" transform="translate(363,197)"/>
<path d="M0 0 C0.721875 0.144375 1.44375 0.28875 2.1875 0.4375 C3.5796875 0.7159375 3.5796875 0.7159375 5 1 C6.66666667 1.33333333 8.33333333 1.66666667 10 2 C9.01 2.66 8.02 3.32 7 4 C5.80767387 6.05003955 5.80767387 6.05003955 5 8 C4.38125 7.814375 3.7625 7.62875 3.125 7.4375 C0.95839822 6.76313824 0.95839822 6.76313824 -1 8 C-0.67 5.36 -0.34 2.72 0 0 Z " fill="#357573" transform="translate(132,313)"/>
<path d="M0 0 C0.66 0 1.32 0 2 0 C1.67 2.31 1.34 4.62 1 7 C0.38125 7.12375 -0.2375 7.2475 -0.875 7.375 C-3.19120832 7.87197356 -3.19120832 7.87197356 -5 10 C-5 9.34 -5 8.68 -5 8 C-5.99 8 -6.98 8 -8 8 C-7.34 6.35 -6.68 4.7 -6 3 C-6.66 2.67 -7.32 2.34 -8 2 C-6.35 1.67 -4.7 1.34 -3 1 C-3.33 2.32 -3.66 3.64 -4 5 C-3.01 5 -2.02 5 -1 5 C-0.67 3.35 -0.34 1.7 0 0 Z " fill="#9FD682" transform="translate(259,209)"/>
<path d="M0 0 C0.66 0.33 1.32 0.66 2 1 C1.67 1.99 1.34 2.98 1 4 C2.32 4 3.64 4 5 4 C5.33 2.68 5.66 1.36 6 0 C6.66 0 7.32 0 8 0 C8.33 2.64 8.66 5.28 9 8 C7.35 8.66 5.7 9.32 4 10 C3.67 8.68 3.34 7.36 3 6 C1.68 5.67 0.36 5.34 -1 5 C-0.67 3.35 -0.34 1.7 0 0 Z " fill="#3C977B" transform="translate(369,267)"/>
<path d="M0 0 C0.8353125 0.556875 0.8353125 0.556875 1.6875 1.125 C1.6875 2.775 1.6875 4.425 1.6875 6.125 C-1.2825 6.125 -4.2525 6.125 -7.3125 6.125 C-6.6525 5.795 -5.9925 5.465 -5.3125 5.125 C-5.3125 4.465 -5.3125 3.805 -5.3125 3.125 C-6.3025 3.125 -7.2925 3.125 -8.3125 3.125 C-7.3125 1.125 -7.3125 1.125 -5 -0.125 C-2.3125 -0.875 -2.3125 -0.875 0 0 Z " fill="#51BE7A" transform="translate(342.3125,233.875)"/>
<path d="M0 0 C4.95 0 9.9 0 15 0 C12.71973999 3.42039001 12.6132423 3.12406247 9 4 C7.26973898 5.47890069 7.26973898 5.47890069 6 7 C5.34 6.67 4.68 6.34 4 6 C3.375 3.4375 3.375 3.4375 3 1 C2.01 0.67 1.02 0.34 0 0 Z " fill="#C8EBAE" transform="translate(279,162)"/>
<path d="M0 0 C0.66 1.32 1.32 2.64 2 4 C3.35007388 6.29791336 4.70526823 8.59218046 6.07421875 10.87890625 C7 13 7 13 6 16 C4.0625 15.3125 4.0625 15.3125 2 14 C1.25 11.375 1.25 11.375 1 9 C0.67 9 0.34 9 0 9 C0 6.03 0 3.06 0 0 Z " fill="#6AC579" transform="translate(153,222)"/>
<path d="M0 0 C1.32 0.66 2.64 1.32 4 2 C4 1.34 4 0.68 4 0 C4.99 0.33 5.98 0.66 7 1 C6.34 1 5.68 1 5 1 C5 1.66 5 2.32 5 3 C3.02 3.66 1.04 4.32 -1 5 C-1 5.99 -1 6.98 -1 8 C-2.65 8.33 -4.3 8.66 -6 9 C-6 6 -6 6 -4.6875 4.39453125 C-4.130625 3.87246094 -3.57375 3.35039062 -3 2.8125 C-2.443125 2.28269531 -1.88625 1.75289062 -1.3125 1.20703125 C-0.6628125 0.60955078 -0.6628125 0.60955078 0 0 Z " fill="#84CA81" transform="translate(159,148)"/>
<path d="M0 0 C0.66 0.33 1.32 0.66 2 1 C1.67 1.99 1.34 2.98 1 4 C-0.70558381 4.78719253 -2.41832824 5.56466268 -4.171875 6.23828125 C-6.1904509 7.00867846 -6.1904509 7.00867846 -8.5 8.6875 C-11.7731264 10.40589136 -14.35971483 10.21413442 -18 10 C-14.91466825 6.91466825 -10.96633202 5.8922112 -6.9453125 4.31640625 C-4.2730831 3.12205438 -2.24265358 1.8580439 0 0 Z " fill="#6AC377" transform="translate(244,252)"/>
<path d="M0 0 C5.44375692 5.27879459 10.50645156 10.88605076 15 17 C14.4225 16.690625 13.845 16.38125 13.25 16.0625 C11.08659691 14.90747972 11.08659691 14.90747972 8.875 14.6875 C7 14 7 14 5.8125 11.625 C5.544375 10.75875 5.27625 9.8925 5 9 C4.33131686 5.88667752 4.33131686 5.88667752 1.9375 4.8125 C1.298125 4.544375 0.65875 4.27625 0 4 C0 2.68 0 1.36 0 0 Z " fill="#337E67" transform="translate(147,246)"/>
<path d="M0 0 C1.98 0.99 1.98 0.99 4 2 C3.01 2.495 3.01 2.495 2 3 C2.13277344 3.66386719 2.26554687 4.32773437 2.40234375 5.01171875 C3.26822917 9.34114583 4.13411458 13.67057292 5 18 C4.34 18 3.68 18 3 18 C-0.24201565 11.92122066 -0.33278764 6.81598387 0 0 Z " fill="#396C65" transform="translate(84,316)"/>
<path d="M0 0 C2.475 0.99 2.475 0.99 5 2 C4.67 3.32 4.34 4.64 4 6 C2.35 5.67 0.7 5.34 -1 5 C-1.33 5.99 -1.66 6.98 -2 8 C-1.34 8.33 -0.68 8.66 0 9 C-1.65 9.33 -3.3 9.66 -5 10 C-4.34 7.69 -3.68 5.38 -3 3 C-2.01 3 -1.02 3 0 3 C0 2.01 0 1.02 0 0 Z " fill="#90D17F" transform="translate(229,242)"/>
<path d="M0 0 C2.475 0.495 2.475 0.495 5 1 C4.34 1.66 3.68 2.32 3 3 C2.34 2.67 1.68 2.34 1 2 C1 7.61 1 13.22 1 19 C2.32 19.33 3.64 19.66 5 20 C4.34 20.66 3.68 21.32 3 22 C2.01 22 1.02 22 0 22 C0 14.74 0 7.48 0 0 Z " fill="#AADFA0" transform="translate(211,205)"/>
<path d="M0 0 C4.4899975 0.55401442 7.34987631 2.28265908 11.0625 4.8125 C12.08472656 5.49957031 13.10695312 6.18664062 14.16015625 6.89453125 C16.6961361 8.77471438 18.84592127 10.7012829 21 13 C19.35 13.33 17.7 13.66 16 14 C15.92136719 13.40316406 15.84273437 12.80632812 15.76171875 12.19140625 C14.74750041 9.27357811 13.40399815 8.56532547 10.8125 6.9375 C10.00554687 6.42832031 9.19859375 5.91914063 8.3671875 5.39453125 C5.62740683 3.78050205 2.88640451 2.3321867 0 1 C0 0.67 0 0.34 0 0 Z " fill="#6BB986" transform="translate(240,135)"/>
<path d="M0 0 C7.26 0.33 14.52 0.66 22 1 C22 1.33 22 1.66 22 2 C18.91886238 2.39476516 15.83506496 2.76231457 12.75 3.125 C11.87730469 3.23714844 11.00460937 3.34929687 10.10546875 3.46484375 C8.83896484 3.60986328 8.83896484 3.60986328 7.546875 3.7578125 C6.77182617 3.8520752 5.99677734 3.94633789 5.19824219 4.04345703 C2.64453711 3.99297286 1.17766015 3.28837662 -1 2 C-0.67 1.34 -0.34 0.68 0 0 Z " fill="#54B06D" transform="translate(282,200)"/>
<path d="M0 0 C0.33 0.66 0.66 1.32 1 2 C1.66 2.33 2.32 2.66 3 3 C1.9375 5.5 1.9375 5.5 0 8 C-3.6875 8.3125 -3.6875 8.3125 -7 8 C-7 6.35 -7 4.7 -7 3 C-4.525 3.495 -4.525 3.495 -2 4 C-1.67 3.01 -1.34 2.02 -1 1 C-0.67 0.67 -0.34 0.34 0 0 Z " fill="#91D88B" transform="translate(362,193)"/>
<path d="M0 0 C0.99 0 1.98 0 3 0 C3 3.3 3 6.6 3 10 C1.68 10.33 0.36 10.66 -1 11 C-1.66 10.01 -2.32 9.02 -3 8 C-1.68 7.01 -0.36 6.02 1 5 C0.67 3.35 0.34 1.7 0 0 Z " fill="#2B7260" transform="translate(376,269)"/>
<path d="M0 0 C0.66 0 1.32 0 2 0 C2 0.66 2 1.32 2 2 C2.7425 1.649375 3.485 1.29875 4.25 0.9375 C7.1322726 -0.04509293 8.21176345 -0.0326802 11 1 C10 3 10 3 9 4 C9.66 4.33 10.32 4.66 11 5 C11 5.66 11 6.32 11 7 C9.35 7 7.7 7 6 7 C5.67 6.01 5.34 5.02 5 4 C3.35 3.67 1.7 3.34 0 3 C0 2.01 0 1.02 0 0 Z " fill="#90D585" transform="translate(235,234)"/>
<path d="M0 0 C3.91377145 3.91377145 4.125 9.69490014 4.125 15 C4.09346189 16.33361135 4.05553449 17.66717225 4 19 C3.01 18.67 2.02 18.34 1 18 C1.01740234 16.80503906 1.01740234 16.80503906 1.03515625 15.5859375 C1.11851557 7.74521011 1.11851557 7.74521011 0 0 Z " fill="#6EC378" transform="translate(281,182)"/>
<path d="M0 0 C0 0.66 0 1.32 0 2 C-1.98 2.33 -3.96 2.66 -6 3 C-6 3.66 -6 4.32 -6 5 C-6.66 5 -7.32 5 -8 5 C-8 5.66 -8 6.32 -8 7 C-7.01 7.33 -6.02 7.66 -5 8 C-5.33 8.66 -5.66 9.32 -6 10 C-7.98 8.35 -9.96 6.7 -12 5 C-7.86687528 1.75254486 -5.36067372 0 0 0 Z " fill="#84D28E" transform="translate(183,135)"/>
<path d="M0 0 C0.66 0 1.32 0 2 0 C2 2.31 2 4.62 2 7 C-0.31 7 -2.62 7 -5 7 C-4.67 5.35 -4.34 3.7 -4 2 C-2.68 2 -1.36 2 0 2 C0 1.34 0 0.68 0 0 Z " fill="#326764" transform="translate(210,324)"/>
<path d="M0 0 C0.99 0 1.98 0 3 0 C3.33 1.65 3.66 3.3 4 5 C3.01 5 2.02 5 1 5 C1.165 5.598125 1.33 6.19625 1.5 6.8125 C2.13942462 9.60998271 2.29984393 11.40031215 1 14 C0.01 13.34 -0.98 12.68 -2 12 C-1.34 8.04 -0.68 4.08 0 0 Z " fill="#54B572" transform="translate(268,216)"/>
<path d="M0 0 C2 1 2 1 2.8515625 3.44140625 C4.34330807 9.461127 5.35779258 14.79826201 5 21 C4.01 20.67 3.02 20.34 2 20 C2.18304688 19.278125 2.36609375 18.55625 2.5546875 17.8125 C3.02437653 14.846043 2.78861691 12.90900564 2.125 10 C1.94195312 9.175 1.75890625 8.35 1.5703125 7.5 C1.38210938 6.675 1.19390625 5.85 1 5 C0.66221868 3.33422911 0.32760402 1.66780229 0 0 Z " fill="#A9E492" transform="translate(256,183)"/>
<path d="M0 0 C1.98 0 3.96 0 6 0 C6.125 4.75 6.125 4.75 5 7 C3.125 6.75 3.125 6.75 1 6 C-0.3125 4.0625 -0.3125 4.0625 -1 2 C-0.67 1.34 -0.34 0.68 0 0 Z " fill="#99D689" transform="translate(369,178)"/>
<path d="M0 0 C0.33 0.99 0.66 1.98 1 3 C-6.23823529 9.13676471 -6.23823529 9.13676471 -12.625 9.0625 C-13.62789062 9.05347656 -14.63078125 9.04445313 -15.6640625 9.03515625 C-16.43492187 9.02355469 -17.20578125 9.01195312 -18 9 C-18 8.67 -18 8.34 -18 8 C-16.37512529 7.83211627 -14.75009558 7.66573213 -13.125 7.5 C-11.76761719 7.36078125 -11.76761719 7.36078125 -10.3828125 7.21875 C-8 7 -8 7 -6 7 C-6 6.34 -6 5.68 -6 5 C-4.34467377 3.98133771 -2.67739862 2.98189187 -1 2 C-0.67 1.34 -0.34 0.68 0 0 Z " fill="#3A6E65" transform="translate(210,334)"/>
<path d="M0 0 C0.99 0.33 1.98 0.66 3 1 C2.67 1.53625 2.34 2.0725 2 2.625 C0.32588231 6.60102951 0.59763031 9.84318715 2 13.875 C2.33 14.57625 2.66 15.2775 3 16 C2.01 16 1.02 16 0 16 C-2.21390807 10.79080454 -1.99577807 7.43151674 -1 2 C-0.67 1.34 -0.34 0.68 0 0 Z " fill="#AAD996" transform="translate(197,184)"/>
<path d="M0 0 C1.98 0 3.96 0 6 0 C5.01 0.33 4.02 0.66 3 1 C4.15173355 3.46800047 5.04783565 5.04783565 7 7 C6.34 7 5.68 7 5 7 C4.34 8.32 3.68 9.64 3 11 C2.01 7.37 1.02 3.74 0 0 Z " fill="#346960" transform="translate(247,302)"/>
<path d="M0 0 C0.66 0.66 1.32 1.32 2 2 C1.01 3.98 0.02 5.96 -1 8 C-1.66 8 -2.32 8 -3 8 C-5.16666667 8.83333333 -5.16666667 8.83333333 -6 11 C-7.0625 9.1875 -7.0625 9.1875 -8 7 C-7.67 6.01 -7.34 5.02 -7 4 C-5.35 4 -3.7 4 -2 4 C-1.34 2.68 -0.68 1.36 0 0 Z " fill="#5AAD89" transform="translate(275,234)"/>
<path d="M0 0 C0.66 0 1.32 0 2 0 C1.40339753 3.34097385 0.36924875 5.54300129 -2 8 C-4 8 -6 8 -8 8 C-8 7.34 -8 6.68 -8 6 C-7.34 6 -6.68 6 -6 6 C-5.67 5.01 -5.34 4.02 -5 3 C-4.01 3.33 -3.02 3.66 -2 4 C-1.34 2.68 -0.68 1.36 0 0 Z " fill="#4CAA75" transform="translate(267,235)"/>
<path d="M0 0 C0.66 0 1.32 0 2 0 C0.60865582 4.42700422 -1.47884142 6.99413292 -5 10 C-5.99 10 -6.98 10 -8 10 C-7.67 9.01 -7.34 8.02 -7 7 C-4.9375 6.3125 -4.9375 6.3125 -3 6 C-2.814375 5.071875 -2.814375 5.071875 -2.625 4.125 C-2 2 -2 2 0 0 Z " fill="#3B6C66" transform="translate(177,332)"/>
<path d="M0 0 C1.60725635 3.21451269 1.05748185 6.43612536 1 10 C-1.56995074 8.71502463 -1.90434463 7.50087627 -3.125 4.9375 C-3.47820312 4.20402344 -3.83140625 3.47054687 -4.1953125 2.71484375 C-4.46085937 2.14894531 -4.72640625 1.58304688 -5 1 C-3 0 -3 0 0 0 Z " fill="#A9E193" transform="translate(278,162)"/>
<path d="M0 0 C1.32 0.33 2.64 0.66 4 1 C4.6875 3.8125 4.6875 3.8125 5 7 C3.5625 8.875 3.5625 8.875 2 10 C-0.125 5.375 -0.125 5.375 1 2 C0.67 1.34 0.34 0.68 0 0 Z " fill="#3A976E" transform="translate(269,240)"/>
<path d="M0 0 C0.33 0 0.66 0 1 0 C1 1.98 1 3.96 1 6 C1.99 5.67 2.98 5.34 4 5 C3.67 5.99 3.34 6.98 3 8 C-1.455 7.01 -1.455 7.01 -6 6 C-6 5.01 -6 4.02 -6 3 C-4.35 3.33 -2.7 3.66 -1 4 C-0.67 2.68 -0.34 1.36 0 0 Z " fill="#3C987C" transform="translate(366,270)"/>
<path d="M0 0 C4.29 0 8.58 0 13 0 C13 0.99 13 1.98 13 3 C11.20841511 3.02696365 9.41671527 3.04637917 7.625 3.0625 C6.62726563 3.07410156 5.62953125 3.08570313 4.6015625 3.09765625 C2 3 2 3 0 2 C0 1.34 0 0.68 0 0 Z " fill="#295455" transform="translate(151,263)"/>
<path d="M0 0 C0.99 0 1.98 0 3 0 C3 1.32 3 2.64 3 4 C3.99 4.33 4.98 4.66 6 5 C5.67 5.66 5.34 6.32 5 7 C4.34 7 3.68 7 3 7 C2.67 8.65 2.34 10.3 2 12 C1.01 11.67 0.02 11.34 -1 11 C-0.05066101 7.64566891 0.89748835 4.30753495 2 1 C1.34 0.67 0.68 0.34 0 0 Z " fill="#5BB589" transform="translate(262,245)"/>
<path d="M0 0 C0.33 0.66 0.66 1.32 1 2 C4.63 2 8.26 2 12 2 C12 2.66 12 3.32 12 4 C7.38 4 2.76 4 -2 4 C-1.34 2.68 -0.68 1.36 0 0 Z " fill="#2C4F50" transform="translate(133,163)"/>
<path d="M0 0 C3.96 0.33 7.92 0.66 12 1 C12 1.66 12 2.32 12 3 C7.38 3 2.76 3 -2 3 C-1.34 2.01 -0.68 1.02 0 0 Z " fill="#335153" transform="translate(149,145)"/>
<path d="M0 0 C0.32613281 0.64453125 0.65226562 1.2890625 0.98828125 1.953125 C3.96373483 4.9805768 7.16797677 4.67276899 11.1875 4.75 C11.93708984 4.77964844 12.68667969 4.80929688 13.45898438 4.83984375 C15.30541307 4.9104079 17.15271261 4.95748476 19 5 C19 5.33 19 5.66 19 6 C12.73 6 6.46 6 0 6 C0 4.02 0 2.04 0 0 Z " fill="#A4E796" transform="translate(285,195)"/>
<path d="M0 0 C2.38564077 0.57584432 4.66682784 1.22227595 7 2 C7.33 2.99 7.66 3.98 8 5 C6.3125 5.6875 6.3125 5.6875 4 6 C1.25 4.5625 1.25 4.5625 -1 3 C-0.67 2.01 -0.34 1.02 0 0 Z " fill="#B8E189" transform="translate(237,154)"/>
<path d="M0 0 C6.1796648 1.17200539 9.43966604 2.66768274 14 7 C13.67 7.66 13.34 8.32 13 9 C12.41798828 8.32517578 12.41798828 8.32517578 11.82421875 7.63671875 C9.62539846 5.6639014 7.57011171 4.85108103 4.8125 3.8125 C3.91144531 3.46832031 3.01039063 3.12414062 2.08203125 2.76953125 C1.39496094 2.51558594 0.70789063 2.26164062 0 2 C0 1.34 0 0.68 0 0 Z " fill="#3B6F66" transform="translate(197,310)"/>
<path d="M0 0 C0.99 0.33 1.98 0.66 3 1 C-0.515625 5.6875 -0.515625 5.6875 -2 7 C-3.32 7 -4.64 7 -6 7 C-6 6.01 -6 5.02 -6 4 C-5.34 4 -4.68 4 -4 4 C-3.67 3.34 -3.34 2.68 -3 2 C-2.01 2 -1.02 2 0 2 C0 1.34 0 0.68 0 0 Z " fill="#8EDA89" transform="translate(164,149)"/>
<path d="M0 0 C0.66 0.66 1.32 1.32 2 2 C1.67 2.66 1.34 3.32 1 4 C2.98 4.66 4.96 5.32 7 6 C6.67 6.99 6.34 7.98 6 9 C5.34 9 4.68 9 4 9 C4 8.01 4 7.02 4 6 C0.9254644 6.7763932 0.9254644 6.7763932 -1 9 C-1 5.88772805 -0.54372951 3.05847848 0 0 Z " fill="#7DCC82" transform="translate(144,167)"/>
<path d="M0 0 C1.0625 1.875 1.0625 1.875 2 4 C1.67 4.66 1.34 5.32 1 6 C0.34 6 -0.32 6 -1 6 C-2.56266521 7.099763 -2.56266521 7.099763 -4.125 8.5 C-5.07375 9.325 -6.0225 10.15 -7 11 C-5.5140084 6.40693504 -3.14985318 3.56430755 0 0 Z " fill="#ACE38F" transform="translate(172,169)"/>
<path d="M0 0 C1.485 0.99 1.485 0.99 3 2 C3 2.66 3 3.32 3 4 C3.515625 4.99 4.03125 5.98 4.5625 7 C5.036875 7.99 5.51125 8.98 6 10 C5.67 10.66 5.34 11.32 5 12 C2.65398514 9.86725921 1.13735551 7.97462211 0 5 C-0.125 2.25 -0.125 2.25 0 0 Z " fill="#6BC778" transform="translate(272,161)"/>
<path d="M0 0 C2.625 0.375 2.625 0.375 5 1 C5 1.66 5 2.32 5 3 C4 4 4 4 1 5 C1 5.66 1 6.32 1 7 C0.34 7 -0.32 7 -1 7 C-1.625 4.625 -1.625 4.625 -2 2 C-1.34 1.34 -0.68 0.68 0 0 Z " fill="#7FD282" transform="translate(151,162)"/>
<path d="M0 0 C6.27 0 12.54 0 19 0 C19 0.33 19 0.66 19 1 C14.38 1.66 9.76 2.32 5 3 C5 2.34 5 1.68 5 1 C3.35 1 1.7 1 0 1 C0 0.67 0 0.34 0 0 Z " fill="#A8E591" transform="translate(200,153)"/>
<path d="M0 0 C1.65 0 3.3 0 5 0 C1.97727468 3.25524265 -1.25718301 5.61820737 -5 8 C-5 6.68 -5 5.36 -5 4 C-4.360625 3.71125 -3.72125 3.4225 -3.0625 3.125 C-0.84793921 2.17176549 -0.84793921 2.17176549 0 0 Z " fill="#3D7D62" transform="translate(166,139)"/>
<path d="M0 0 C0.66 0.33 1.32 0.66 2 1 C2.625 3.0625 2.625 3.0625 3 5 C2.01 5.495 2.01 5.495 1 6 C1.33 6.99 1.66 7.98 2 9 C1.01 9 0.02 9 -1 9 C-1.66 6.69 -2.32 4.38 -3 2 C-2.34 2 -1.68 2 -1 2 C-0.67 1.34 -0.34 0.68 0 0 Z " fill="#398F69" transform="translate(266,240)"/>
<path d="M0 0 C1.32 0.66 2.64 1.32 4 2 C3.34 4.64 2.68 7.28 2 10 C1.67 8.68 1.34 7.36 1 6 C-0.65 6 -2.3 6 -4 6 C-3.34 5.566875 -2.68 5.13375 -2 4.6875 C-1.01 3.8521875 -1.01 3.8521875 0 3 C0 2.01 0 1.02 0 0 Z " fill="#3F9A6C" transform="translate(278,224)"/>
<path d="M0 0 C3.2830098 1.6415049 4.27037919 4.82902851 6 8 C6.99 8 7.98 8 9 8 C8.67 8.99 8.34 9.98 8 11 C4.49810101 9.10708163 2.00875939 7.48889789 0 4 C0 2.68 0 1.36 0 0 Z " fill="#ABDC97" transform="translate(199,216)"/>
<path d="M0 0 C0.99 0.495 0.99 0.495 2 1 C2 1.99 2 2.98 2 4 C3.65 3.67 5.3 3.34 7 3 C7 4.65 7 6.3 7 8 C4.69 7.01 2.38 6.02 0 5 C0 3.35 0 1.7 0 0 Z " fill="#B0DE96" transform="translate(211,174)"/>
<path d="M0 0 C0.66 0 1.32 0 2 0 C2.309375 0.9590625 2.309375 0.9590625 2.625 1.9375 C3.89538209 4.34925077 3.89538209 4.34925077 7.125 4.75 C8.07375 4.8325 9.0225 4.915 10 5 C8 7 8 7 5 7.1875 C2 7 2 7 0 6 C0 4.02 0 2.04 0 0 Z " fill="#89D38B" transform="translate(145,165)"/>
<path d="M0 0 C0 3.63 0 7.26 0 11 C-1.32 10.67 -2.64 10.34 -4 10 C-3.34 9.67 -2.68 9.34 -2 9 C-2 7.35 -2 5.7 -2 4 C-2.99 3.67 -3.98 3.34 -5 3 C-5 2.34 -5 1.68 -5 1 C-1.125 0 -1.125 0 0 0 Z " fill="#37665D" transform="translate(147,310)"/>
<path d="M0 0 C1.41750563 0.11509661 2.83401169 0.24253658 4.25 0.375 C5.03890625 0.44460938 5.8278125 0.51421875 6.640625 0.5859375 C9.085877 1.01507113 10.84836903 1.78600638 13 3 C9.57056481 4.18771723 7.62215325 3.80226223 4.25 2.5625 C3.45078125 2.27503906 2.6515625 1.98757813 1.828125 1.69140625 C1.22484375 1.46324219 0.6215625 1.23507812 0 1 C0 0.67 0 0.34 0 0 Z " fill="#5AB586" transform="translate(183,274)"/>
<path d="M0 0 C0.99 0 1.98 0 3 0 C4.0326802 2.78823655 4.04509293 3.8677274 3.0625 6.75 C2.711875 7.4925 2.36125 8.235 2 9 C1.34 8.34 0.68 7.68 0 7 C0 4.66666667 0 2.33333333 0 0 Z " fill="#2DA16E" transform="translate(362,260)"/>
<path d="M0 0 C0.66 0 1.32 0 2 0 C2.53190541 1.43344 3.05015258 2.87195367 3.5625 4.3125 C3.85253906 5.11300781 4.14257812 5.91351563 4.44140625 6.73828125 C5 9 5 9 4 12 C3.13353333 10.56988027 2.28218171 9.13059381 1.4375 7.6875 C0.72400391 6.48673828 0.72400391 6.48673828 -0.00390625 5.26171875 C-1 3 -1 3 0 0 Z " fill="#ABE491" transform="translate(163,221)"/>
<path d="M0 0 C1.65 0.33 3.3 0.66 5 1 C4.19185349 2.33597652 3.37836819 3.668725 2.5625 5 C2.11003906 5.7425 1.65757812 6.485 1.19140625 7.25 C0.79824219 7.8275 0.40507812 8.405 0 9 C-0.33 9 -0.66 9 -1 9 C-1 7.35 -1 5.7 -1 4 C-0.34 4 0.32 4 1 4 C0.67 2.68 0.34 1.36 0 0 Z " fill="#397A67" transform="translate(146,156)"/>
<path d="M0 0 C0 0.66 0 1.32 0 2 C-0.66 2 -1.32 2 -2 2 C-2.66 4.31 -3.32 6.62 -4 9 C-5.125 7.25 -5.125 7.25 -6 5 C-4.84489476 1.63094305 -3.74484822 0 0 0 Z " fill="#A8D882" transform="translate(225,243)"/>
<path d="M0 0 C0.99 0 1.98 0 3 0 C3.99 2.97 4.98 5.94 6 9 C0.42857143 3.85714286 0.42857143 3.85714286 0 0 Z " fill="#61BE88" transform="translate(146,242)"/>
<path d="M0 0 C1 3 1 3 -0.1875 5.9375 C-1.88069631 8.7984179 -3.53876547 10.79337594 -6 13 C-6.66 12.67 -7.32 12.34 -8 12 C-7.59007812 11.46890625 -7.18015625 10.9378125 -6.7578125 10.390625 C-6.21898437 9.68421875 -5.68015625 8.9778125 -5.125 8.25 C-4.59132812 7.55390625 -4.05765625 6.8578125 -3.5078125 6.140625 C-2.10761086 4.15277397 -1.02144735 2.20156614 0 0 Z " fill="#A5E092" transform="translate(257,227)"/>
<path d="M0 0 C0.66 0.33 1.32 0.66 2 1 C1.34 2.32 0.68 3.64 0 5 C0.99 5.33 1.98 5.66 3 6 C2.01 6.495 2.01 6.495 1 7 C0.67 7.99 0.34 8.98 0 10 C0 9.34 0 8.68 0 8 C-0.99 7.67 -1.98 7.34 -3 7 C-3 6.34 -3 5.68 -3 5 C-2.34 5 -1.68 5 -1 5 C-0.67 3.35 -0.34 1.7 0 0 Z " fill="#69C17F" transform="translate(266,223)"/>
<path d="M0 0 C0.66 0.99 1.32 1.98 2 3 C1.1654738 5.50357861 0.20628008 7.66785852 -1 10 C-1.99 10 -2.98 10 -4 10 C-4 8.68 -4 7.36 -4 6 C-3.01 5.34 -2.02 4.68 -1 4 C-0.27617533 1.94074861 -0.27617533 1.94074861 0 0 Z " fill="#82D07F" transform="translate(260,212)"/>
<path d="M0 0 C0.33 0.66 0.66 1.32 1 2 C0.25 4.0625 0.25 4.0625 -1 6 C-1.99 6.33 -2.98 6.66 -4 7 C-4.33 5.35 -4.66 3.7 -5 2 C-3.35 1.34 -1.7 0.68 0 0 Z " fill="#255B54" transform="translate(403,310)"/>
<path d="M0 0 C1.66666667 3.33333333 3.33333333 6.66666667 5 10 C2 10 2 10 0 9 C0 6.03 0 3.06 0 0 Z " fill="#A8D993" transform="translate(196,215)"/>
<path d="M0 0 C2.39763185 2.39763185 2.34280586 3.33273498 2.625 6.625 C2.69976562 7.44226563 2.77453125 8.25953125 2.8515625 9.1015625 C2.92503906 10.04128906 2.92503906 10.04128906 3 11 C2.01 11.495 2.01 11.495 1 12 C0.8046875 9.98177083 0.609375 7.96354167 0.4140625 5.9453125 C0.13625251 3.77331755 0.13625251 3.77331755 -2 2 C-1.34 2 -0.68 2 0 2 C0 1.34 0 0.68 0 0 Z " fill="#3E7267" transform="translate(211,319)"/>
<path d="M0 0 C0.33 0 0.66 0 1 0 C1 1.65 1 3.3 1 5 C-1.97 5 -4.94 5 -8 5 C-5 3 -5 3 -3 3 C-1.97980427 2.0206121 -0.97850195 1.02104551 0 0 Z " fill="#49B47A" transform="translate(343,235)"/>
<path d="M0 0 C0.66 0.33 1.32 0.66 2 1 C0.25 5.875 0.25 5.875 -2 7 C-2.33 6.34 -2.66 5.68 -3 5 C-3.98020375 3.9805881 -4.97803008 2.97753644 -6 2 C-5.38125 1.855625 -4.7625 1.71125 -4.125 1.5625 C-1.96741678 1.06847775 -1.96741678 1.06847775 0 0 Z " fill="#8EDD90" transform="translate(370,195)"/>
<path d="M0 0 C0.66 0.33 1.32 0.66 2 1 C1.1875 4.4375 1.1875 4.4375 0 8 C-0.99 8.33 -1.98 8.66 -3 9 C-3.66 8.34 -4.32 7.68 -5 7 C-3.68 6.67 -2.36 6.34 -1 6 C-0.67 4.02 -0.34 2.04 0 0 Z " fill="#386962" transform="translate(268,334)"/>
<path d="M0 0 C1.46015291 0.28241641 2.91809793 0.57626614 4.375 0.875 C5.18710938 1.03742188 5.99921875 1.19984375 6.8359375 1.3671875 C9 2 9 2 11 4 C6.35108046 4.32434322 3.77593392 3.776422 0 1 C0 0.67 0 0.34 0 0 Z " fill="#6DC274" transform="translate(183,258)"/>
<path d="M0 0 C0.66 0 1.32 0 2 0 C2.33 3.3 2.66 6.6 3 10 C2.01 9.34 1.02 8.68 0 8 C-0.40843923 5.28796348 -0.13336867 2.7562858 0 0 Z " fill="#28AE58" transform="translate(376,253)"/>
<path d="M0 0 C2.625 0.375 2.625 0.375 5 1 C5 1.66 5 2.32 5 3 C3.02 3.66 1.04 4.32 -1 5 C-1.33 4.01 -1.66 3.02 -2 2 C-1.34 1.34 -0.68 0.68 0 0 Z " fill="#57BE76" transform="translate(246,252)"/>
<path d="M0 0 C3 2 3 2 3.8125 4.5 C3.874375 5.325 3.93625 6.15 4 7 C3.34 7.66 2.68 8.32 2 9 C1.01 6.36 0.02 3.72 -1 1 C-0.67 0.67 -0.34 0.34 0 0 Z " fill="#46A479" transform="translate(267,244)"/>
<path d="M0 0 C2.31 0 4.62 0 7 0 C7 1.65 7 3.3 7 5 C6.34 5 5.68 5 5 5 C4.67 4.34 4.34 3.68 4 3 C2.68 3 1.36 3 0 3 C0 2.01 0 1.02 0 0 Z " fill="#9EDA86" transform="translate(345,193)"/>
<path d="M0 0 C0 2 0 4 0 6 C-1.32 6 -2.64 6 -4 6 C-4.66 6.66 -5.32 7.32 -6 8 C-6.33 7.01 -6.66 6.02 -7 5 C-6.34 4.34 -5.68 3.68 -5 3 C-4.01 3.33 -3.02 3.66 -2 4 C-1.34 2.68 -0.68 1.36 0 0 Z " fill="#7DD78A" transform="translate(164,157)"/>
<path d="M0 0 C2.97 0 5.94 0 9 0 C9.33 0.66 9.66 1.32 10 2 C9.34 2.66 8.68 3.32 8 4 C7.67 3.34 7.34 2.68 7 2 C3.97065509 1.34227572 3.97065509 1.34227572 1 1 C0.67 1.99 0.34 2.98 0 4 C0 2.68 0 1.36 0 0 Z " fill="#31635A" transform="translate(269,302)"/>
<path d="M0 0 C2.64 0.33 5.28 0.66 8 1 C8 1.66 8 2.32 8 3 C5.36 3 2.72 3 0 3 C0 2.01 0 1.02 0 0 Z " fill="#357C65" transform="translate(190,277)"/>
<path d="M0 0 C0.99 0.33 1.98 0.66 3 1 C3 2.65 3 4.3 3 6 C0.525 5.01 0.525 5.01 -2 4 C-2 3.34 -2 2.68 -2 2 C-1.34 2 -0.68 2 0 2 C0 1.34 0 0.68 0 0 Z " fill="#4FB272" transform="translate(276,209)"/>
<path d="M0 0 C2 1 4 2 6 3 C5.01 3.99 4.02 4.98 3 6 C3 5.34 3 4.68 3 4 C1.68 4 0.36 4 -1 4 C-0.67 2.68 -0.34 1.36 0 0 Z " fill="#7AC981" transform="translate(363,197)"/>
<path d="M0 0 C-1 3 -1 3 -4 5 C-4.99 5 -5.98 5 -7 5 C-5.22678182 1.07358831 -4.52021524 0 0 0 Z " fill="#93D07E" transform="translate(365,187)"/>
<path d="M0 0 C0.66 0 1.32 0 2 0 C2.33 1.98 2.66 3.96 3 6 C1.68 5.67 0.36 5.34 -1 5 C-0.67 3.35 -0.34 1.7 0 0 Z " fill="#6DC785" transform="translate(138,183)"/>
<path d="M0 0 C1.4540625 0.0309375 1.4540625 0.0309375 2.9375 0.0625 C2.9375 0.7225 2.9375 1.3825 2.9375 2.0625 C3.9275 2.3925 4.9175 2.7225 5.9375 3.0625 C4.6175 3.0625 3.2975 3.0625 1.9375 3.0625 C1.9375 2.4025 1.9375 1.7425 1.9375 1.0625 C0.9475 1.5575 0.9475 1.5575 -0.0625 2.0625 C-0.3925 3.0525 -0.7225 4.0425 -1.0625 5.0625 C-3.0625 4.0625 -3.0625 4.0625 -4.0625 1.0625 C-3.0625 0.0625 -3.0625 0.0625 0 0 Z " fill="#A0E093" transform="translate(155.0625,155.9375)"/>
<path d="M0 0 C1.65 0.33 3.3 0.66 5 1 C4.67 1.99 4.34 2.98 4 4 C2.02 4 0.04 4 -2 4 C-2 3.34 -2 2.68 -2 2 C-1.34 2 -0.68 2 0 2 C0 1.34 0 0.68 0 0 Z " fill="#2F6F6A" transform="translate(113,329)"/>
<path d="M0 0 C0.99 0.33 1.98 0.66 3 1 C3 1.66 3 2.32 3 3 C2.34 3 1.68 3 1 3 C1 6.63 1 10.26 1 14 C0.67 14 0.34 14 0 14 C-0.19456705 12.04235617 -0.38044247 10.08384679 -0.5625 8.125 C-0.66691406 7.03445313 -0.77132813 5.94390625 -0.87890625 4.8203125 C-1 2 -1 2 0 0 Z " fill="#42AF7F" transform="translate(260,258)"/>
<path d="M0 0 C1.32 0 2.64 0 4 0 C4 0.99 4 1.98 4 3 C3.34 3 2.68 3 2 3 C2 3.66 2 4.32 2 5 C1.01 4.67 0.02 4.34 -1 4 C-0.67 2.68 -0.34 1.36 0 0 Z " fill="#31966F" transform="translate(367,264)"/>
<path d="M0 0 C1.33332095 2.6666419 0.67102033 4.16680303 0 7 C-1.32 6.67 -2.64 6.34 -4 6 C-3.34 6 -2.68 6 -2 6 C-2.33 4.35 -2.66 2.7 -3 1 C-2.01 0.67 -1.02 0.34 0 0 Z " fill="#48A172" transform="translate(254,256)"/>
<path d="M0 0 C2.86724686 0.57344937 3.8614515 0.8614515 6 3 C4.35 3.66 2.7 4.32 1 5 C1 4.34 1 3.68 1 3 C0.34 3 -0.32 3 -1 3 C-0.67 2.01 -0.34 1.02 0 0 Z " fill="#44B673" transform="translate(353,227)"/>
<path d="M0 0 C0.33 0 0.66 0 1 0 C1.05410687 1.77049689 1.09284119 3.54146849 1.125 5.3125 C1.14820313 6.29863281 1.17140625 7.28476563 1.1953125 8.30078125 C1 11 1 11 -1 14 C-2.13732426 10.59598052 -1.83989957 8.22543336 -1.0625 4.75 C-0.86785156 3.85796875 -0.67320312 2.9659375 -0.47265625 2.046875 C-0.31667969 1.37140625 -0.16070312 0.6959375 0 0 Z " fill="#78C06F" transform="translate(262,201)"/>
<path d="M0 0 C0.33 0.66 0.66 1.32 1 2 C1.99 2 2.98 2 4 2 C4 3.65 4 5.3 4 7 C3.01 7.495 3.01 7.495 2 8 C0.74335022 5.09399739 0 3.20395416 0 0 Z " fill="#6CC980" transform="translate(145,175)"/>
<path d="M0 0 C2.31 0.33 4.62 0.66 7 1 C7 1.66 7 2.32 7 3 C5.02 3.33 3.04 3.66 1 4 C0.67 2.68 0.34 1.36 0 0 Z " fill="#6BBC87" transform="translate(216,128)"/>
<path d="M0 0 C0.66 0 1.32 0 2 0 C3.33333333 1.33333333 4.66666667 2.66666667 6 4 C3.69 4 1.38 4 -1 4 C-0.67 2.68 -0.34 1.36 0 0 Z " fill="#3AA77B" transform="translate(344,275)"/>
<path d="M0 0 C1.98 0.66 3.96 1.32 6 2 C6 2.66 6 3.32 6 4 C4.02 4 2.04 4 0 4 C0 2.68 0 1.36 0 0 Z " fill="#4FB175" transform="translate(242,264)"/>
<path d="M0 0 C0.66 0.33 1.32 0.66 2 1 C2 2.98 2 4.96 2 7 C1.34 7 0.68 7 0 7 C0 6.34 0 5.68 0 5 C-0.66 5 -1.32 5 -2 5 C-2 4.34 -2 3.68 -2 3 C-1.34 3 -0.68 3 0 3 C0 2.01 0 1.02 0 0 Z " fill="#36846C" transform="translate(377,262)"/>
<path d="M0 0 C2.97 0 5.94 0 9 0 C6.08235 1.9451 4.37462715 2.45276317 1 3 C0.67 2.01 0.34 1.02 0 0 Z " fill="#3DAB7C" transform="translate(273,242)"/>
<path d="M0 0 C0.66 0.33 1.32 0.66 2 1 C2 1.66 2 2.32 2 3 C2.99 3 3.98 3 5 3 C5 3.99 5 4.98 5 6 C3 5.33333333 1 4.66666667 -1 4 C-0.67 2.68 -0.34 1.36 0 0 Z " fill="#8BD081" transform="translate(348,195)"/>
<path d="M0 0 C1.65 1.32 3.3 2.64 5 4 C4.67 4.66 4.34 5.32 4 6 C2.35 5.67 0.7 5.34 -1 5 C-0.67 3.35 -0.34 1.7 0 0 Z " fill="#65BD84" transform="translate(266,154)"/>
</svg>
